<?xml version="1.0" encoding="UTF-8" standalone="no"?>
<svg
   width="16"
   height="11"
   fill="currentColor"
   class="bi bi-cloud-check-fill"
   viewBox="0 0 16 11"
   version="1.1"
   id="svg1"
   sodipodi:docname="cloud-check-fill.svg"
   inkscape:version="1.4 (e7c3feb100, 2024-10-09)"
   xmlns:inkscape="http://www.inkscape.org/namespaces/inkscape"
   xmlns:sodipodi="http://sodipodi.sourceforge.net/DTD/sodipodi-0.dtd"
   xmlns="http://www.w3.org/2000/svg"
   xmlns:svg="http://www.w3.org/2000/svg">
  <defs
     id="defs1" />
  <sodipodi:namedview
     id="namedview1"
     pagecolor="#ffffff"
     bordercolor="#000000"
     borderopacity="0.25"
     inkscape:showpageshadow="2"
     inkscape:pageopacity="0.0"
     inkscape:pagecheckerboard="0"
     inkscape:deskcolor="#d1d1d1"
     inkscape:zoom="34.375"
     inkscape:cx="8.0145455"
     inkscape:cy="8"
     inkscape:window-width="1366"
     inkscape:window-height="761"
     inkscape:window-x="0"
     inkscape:window-y="0"
     inkscape:window-maximized="1"
     inkscape:current-layer="svg1" />
  <path
     d="M 8,0 A 5.53,5.53 0 0 0 4.406,1.342 C 3.64,2.002 3.085,2.862 2.942,3.725 1.266,4.095 0,5.555 0,7.318 0,9.366 1.708,11 3.781,11 h 8.906 C 14.502,11 16,9.57 16,7.773 16,6.137 14.758,4.804 13.166,4.579 12.923,1.999 10.69,0 8,0 m 2.354,4.854 -3,3 a 0.5,0.5 0 0 1 -0.708,0 l -1.5,-1.5 A 0.5006316,0.5006316 0 1 1 5.854,5.646 L 7,6.793 9.646,4.146 a 0.5006316,0.5006316 0 0 1 0.708,0.708"
     id="path1"
     style="fill:#ea580c;fill-opacity:1" />
</svg>
