<?xml version="1.0" encoding="UTF-8" standalone="no"?>
<!-- Generator: Adobe Illustrator 27.5.0, SVG Export Plug-In . SVG Version: 6.00 Build 0)  -->

<svg
   version="1.1"
   x="0px"
   y="0px"
   viewBox="0 0 364 359"
   xml:space="preserve"
   id="svg134"
   sodipodi:docname="entregador.svg"
   width="364"
   height="359"
   inkscape:version="1.4 (e7c3feb100, 2024-10-09)"
   xmlns:inkscape="http://www.inkscape.org/namespaces/inkscape"
   xmlns:sodipodi="http://sodipodi.sourceforge.net/DTD/sodipodi-0.dtd"
   xmlns="http://www.w3.org/2000/svg"
   xmlns:svg="http://www.w3.org/2000/svg"><defs
   id="defs134">
	
	
		
</defs><sodipodi:namedview
   id="namedview134"
   pagecolor="#ffffff"
   bordercolor="#000000"
   borderopacity="0.25"
   inkscape:showpageshadow="2"
   inkscape:pageopacity="0.0"
   inkscape:pagecheckerboard="0"
   inkscape:deskcolor="#d1d1d1"
   inkscape:zoom="1.6"
   inkscape:cx="249.6875"
   inkscape:cy="200"
   inkscape:window-width="1920"
   inkscape:window-height="1011"
   inkscape:window-x="0"
   inkscape:window-y="0"
   inkscape:window-maximized="1"
   inkscape:current-layer="svg134" />

<g
   id="g135"
   transform="matrix(0.99946641,0,0,1.0004531,-72.86652,-78.689225)"><circle
     transform="rotate(-45)"
     style="fill:#98eab6;stroke-width:0.99999"
     cx="10.341295"
     cy="350.27869"
     id="ellipse1"
     r="161.71844" /><g
     id="OBJECTS">
	<ellipse
   style="fill:#85becc"
   cx="242.183"
   cy="431.40302"
   rx="162.241"
   ry="6.0879998"
   id="ellipse2" />
	<g
   id="g134">
		<path
   style="fill:#ffc024"
   d="m 177.702,264.004 c -2.559,0.439 -5.128,1.088 -7.679,1.865 -3.666,1.124 -7.276,2.514 -10.732,3.94 -12.917,5.339 -24.855,13.145 -34.974,22.789 -5.284,5.028 -10.631,10.631 -14.352,16.93 -1.627,2.761 -2.834,6.179 -3.218,9.571 0.329,0.804 0.777,1.527 1.335,2.176 4.58,5.439 16.125,5.786 22.268,6.984 8.309,1.636 16.637,3.254 24.919,5.037 -0.174,-0.503 0.201,-0.841 0.612,-0.878 8.309,-22.743 16.381,-45.989 27.012,-67.8 -1.434,-0.76 -3.345,-0.924 -5.191,-0.614 z m -22.972,45.633 c -0.676,3.803 -0.622,9.735 -3.465,12.688 -2.916,3.035 -7.953,1.6 -11.618,1.234 -3.2,-0.311 -8.053,0.018 -10.64,-2.322 -1.042,-0.951 -1.527,-2.048 -1.581,-3.218 -0.265,-5.485 8.73,-12.706 11.71,-15.129 2.523,-2.048 11.536,-9.361 15.083,-5.924 0.201,0.037 0.384,0.137 0.484,0.347 0.137,0.302 0.256,0.594 0.366,0.896 0.082,0.201 0.165,0.421 0.238,0.649 0.018,0.064 0.009,0.11 0.018,0.165 0.274,1.015 0.393,2.029 0.402,3.062 0.036,2.488 -0.54,5.002 -0.997,7.552 z"
   id="path2" />
		<path
   style="fill:#ffc024"
   d="m 192.653,207.918 c 0.895,-2.305 2.576,-4.4 3.133,-6.947 0.706,-3.231 0.285,-6.227 -0.074,-9.424 -3.309,1.179 -4.94,2.982 -5.982,6.542 -1.055,3.606 -2.119,9.224 2.923,9.829 z"
   id="path3" />
		<path
   style="fill:#b5bec6"
   d="m 185.492,223.8 c -0.056,0.162 -0.156,0.275 -0.274,0.344 -10e-4,0.017 -10e-4,0.035 -0.002,0.052 0.247,0.047 0.488,0.117 0.727,0.194 0.79,-4.804 2.048,-9.726 3.732,-14.272 -0.392,-0.194 -0.751,-0.45 -1.071,-0.768 -0.378,1.894 -0.956,3.759 -1.353,5.648 -0.612,2.905 -0.794,5.997 -1.759,8.802 z"
   id="path4" />
		<path
   style="fill:#b5bec6"
   d="m 183.058,230.665 c -0.528,-7.558 -0.813,-16.264 0.274,-23.789 -0.203,-0.203 -0.23,-0.551 0.073,-0.743 0.015,-0.01 0.031,-0.016 0.046,-0.025 0.088,-0.248 0.362,-0.363 0.619,-0.336 0.785,-0.375 1.632,-0.605 2.479,-0.816 -0.067,-0.345 -0.125,-0.691 -0.165,-1.038 -0.656,0.266 -1.429,0.39 -2.015,0.563 -0.605,0.179 -1.572,0.515 -2.324,0.394 0.587,4.73 0.054,9.75 -0.03,14.497 -0.068,3.837 0.178,7.789 -0.161,11.633 0.396,-0.129 0.798,-0.24 1.204,-0.34 z"
   id="path5" />
		<path
   style="fill:#fc8f1a"
   d="m 195.746,210.379 c 0.433,0.318 1.069,0.473 1.618,0.713 3.542,-3.313 2.801,-10.863 3.507,-15.462 -0.548,-0.328 -1.086,-0.579 -1.8,-0.403 -0.146,0.036 -0.3,0.074 -0.456,0.107 0.267,2.086 0.124,4.245 -0.294,6.287 -0.508,2.487 -1.508,5.842 -3.505,7.74 0.289,0.369 0.569,0.753 0.93,1.018 z"
   id="path6" />
		<path
   style="fill:#1aad83"
   d="m 192.721,230.875 c 2.536,0.669 4.936,1.793 6.944,3.292 3.665,-1.711 7.878,-2.393 11.922,-2.872 -0.043,-0.543 -0.037,-1.082 -0.014,-1.63 -3.586,1.025 -7.185,2.319 -10.92,2.561 -0.493,0.032 -0.974,-0.453 -0.951,-0.947 -1.743,-0.884 -3.344,-2.087 -5.206,-2.801 -1.31,-0.502 -2.693,-0.796 -4.09,-0.995 0.92,0.897 2.124,2.197 2.315,3.392 z"
   id="path7" />
		<path
   style="fill:#fc8f1a"
   d="m 184.873,230.33 c 1.511,-0.201 3.063,-0.192 4.607,-0.03 -0.368,-0.51 -0.758,-1.004 -1.197,-1.46 -0.952,-0.986 -2.098,-1.727 -3.165,-2.562 -0.072,1.373 -0.152,2.733 -0.245,4.052 z"
   id="path8" />
		<path
   style="fill:#ffff76"
   d="m 153.021,304.619 c -0.475,3.035 -1.28,6.051 -1.865,9.004 -0.009,0.082 -0.027,0.183 -0.046,0.274 -3.867,-0.183 -7.733,-0.338 -11.609,-0.439 h -0.009 c -2.258,-0.073 -4.516,-0.119 -6.764,-0.146 0.247,-0.256 0.466,-0.494 0.631,-0.695 1.536,-1.91 3.218,-3.702 5.018,-5.375 1.92,-1.792 11.344,-10.448 14.973,-8.355 0.119,1.911 -0.037,3.821 -0.329,5.732 z"
   id="path9" />
		<path
   style="fill:#ffc024"
   d="m 192.995,247.477 c -1.499,2.276 -2.642,4.79 -4.132,7.084 -1.581,2.432 -3.848,4.47 -5.201,7.02 -0.027,0.055 -0.037,0.11 -0.055,0.165 -1.645,-0.585 -3.556,-0.686 -5.384,-0.457 -2.706,0.329 -5.439,0.896 -8.172,1.618 1.216,-2.889 -3.145,-5.064 -5.924,-5.549 -1.892,-0.338 -4.635,-0.969 -5.978,-2.541 -0.832,-0.96 -0.914,-3.291 -1.015,-4.571 -0.119,-1.545 -0.046,-3.145 0.055,-4.708 0.037,-0.53 0.073,-1.051 0.11,-1.572 0.356,-5.11 1.453,-10.046 2.349,-15.065 5.338,-1.325 10.768,-2.157 16.317,-2.523 1.133,-0.082 2.276,-0.137 3.419,-0.174 -0.018,1.929 0.036,3.848 0.256,5.741 -1.289,0.667 -2.477,1.536 -3.501,2.623 -0.768,0.786 -1.435,1.682 -2.011,2.706 -0.018,0.027 -0.018,0.046 -0.027,0.073 -0.119,0.091 -0.21,0.219 -0.247,0.384 -0.128,0.567 -0.201,1.152 -0.21,1.764 -0.027,0.53 -0.018,1.079 0.037,1.627 -0.704,0.485 -1.289,1.234 -1.755,1.874 -0.759,1.042 -1.015,2.112 -1.179,3.373 -0.027,0.165 0.027,0.293 0.11,0.393 -0.174,3.766 4.79,5.439 4.79,9.205 0,0.238 0.082,0.421 0.201,0.576 -0.512,0.978 -0.494,2.02 0.256,3.044 0.868,1.179 2.441,1.581 3.784,1.042 1.307,-0.512 2.185,-1.764 2.084,-3.19 -0.073,-0.96 -0.795,-2.331 -1.828,-2.578 -0.229,-1.316 -0.64,-2.578 -1.079,-3.839 0.548,0.375 1.124,0.676 1.737,0.905 0.128,0.046 0.256,0.046 0.384,0.037 2.203,0.585 4.351,0.082 6.335,-1.216 1.335,-0.868 3.291,-2.541 3.428,-4.305 0.611,0.422 1.315,0.769 2.046,1.034 z"
   id="path10" />
		<path
   style="fill:#2ecc8f"
   d="m 212.521,242.66 c 0.018,2.303 0,4.607 -0.055,6.92 -4.443,-0.567 -8.538,-1.892 -12.834,-3.209 0.146,-0.667 -0.274,-1.408 -1.124,-1.426 -1.508,-0.037 -2.87,0.393 -4.415,0.137 -1.243,-0.21 -2.322,-0.722 -3.437,-1.243 0.667,-1.399 0.759,-3.053 0,-4.461 -0.101,-0.174 -0.21,-0.356 -0.347,-0.53 -1.216,-1.581 -3.848,-2.825 -5.622,-1.901 -1.115,0.192 -2.093,0.996 -2.761,2.029 -0.695,1.042 -1.06,2.313 -0.914,3.4 0.402,3.081 3.839,5.247 6.774,4.177 0.448,-0.164 0.868,-0.402 1.243,-0.686 -0.987,0.804 -1.783,1.984 -2.87,2.642 -1.271,0.777 -2.852,1.28 -4.379,1.618 -1.243,-1.581 -2.733,-2.843 -3.839,-4.534 0,-0.009 0,-0.009 0,-0.018 -0.146,-0.229 -0.283,-0.457 -0.411,-0.695 -1.088,-2.029 -1.609,-4.315 -2.084,-6.554 7.103,-5.521 14.754,-8.346 22.725,-2.13 0.475,0.375 1.015,0.357 1.444,0.137 4.242,-0.357 8.446,-1.517 12.67,-2.212 0.144,2.844 0.227,5.696 0.236,8.539 z"
   id="path11" />
		<path
   style="fill:#95bcc4"
   d="m 280.312,292.845 c -2.112,1.079 -4.424,1.883 -6.691,2.459 -0.165,0.046 -0.329,0.082 -0.494,0.119 -6.765,1.709 -13.739,2.761 -20.577,4.104 -14.589,2.861 -29.17,6.408 -43.832,8.812 -0.366,0.064 -0.421,0.448 -0.265,0.713 -0.037,0.055 -0.055,0.119 -0.055,0.183 -0.055,10.777 2.194,21.994 4.205,32.552 1.645,8.602 3.291,17.771 5.978,26.327 -1.856,0.375 -3.711,0.759 -5.567,1.115 -1.079,0.21 -7.322,1.911 -10.101,1.874 -1.015,-3.611 -2.413,-7.194 -3.327,-10.75 -1.472,-5.768 -2.678,-11.609 -3.72,-17.469 -1.115,-6.243 -2.039,-12.523 -2.934,-18.803 -0.091,-4.881 -1.508,-9.735 -0.786,-14.224 0.411,-1.709 1.161,-3.318 2.432,-4.708 3.391,-3.711 9.086,-5.686 13.556,-7.724 5.768,-2.642 11.628,-5.083 17.569,-7.331 11.125,-4.205 22.588,-7.212 33.868,-10.906 0.576,0.101 1.124,0.201 1.618,0.302 4.214,0.868 8.474,1.463 12.761,1.801 0.274,1.874 1.243,3.748 2.084,5.375 0.466,0.905 0.987,1.819 1.554,2.697 0.795,1.252 1.7,2.449 2.724,3.482 z"
   id="path12" />
		<path
   style="fill:#ffc024"
   d="m 148.428,232.518 c 0.812,0.016 1.629,0.086 2.438,0.118 1.909,0.074 3.818,0.138 5.726,0.246 0.365,-1.194 0.77,-2.356 1.214,-3.477 -3.162,0.863 -6.29,1.883 -9.378,3.113 z"
   id="path13" />
		<path
   style="fill:#6d5e61"
   d="m 183.398,241.918 c 0.181,1.73 2.365,3.02 3.908,2.119 1.396,-0.815 1.916,-2.853 0.78,-4.084 -0.794,-0.861 -1.823,-0.909 -2.867,-0.954 -1.036,0.668 -1.974,1.45 -1.821,2.919 z"
   id="path14" />
		<path
   style="fill:#ffff76"
   d="m 154.538,251.655 c 0.064,0.594 0.165,1.198 0.292,1.792 -3.007,-2.395 -3.693,-5.668 -3.483,-9.187 0.192,-3.108 1.079,-6.399 1.682,-9.461 0.978,0.082 1.965,0.165 2.953,0.238 -0.841,3.282 -1.38,6.71 -1.554,10.074 -0.137,2.238 -0.1,4.441 0.11,6.544 z"
   id="path15" />
		<path
   style="fill:#b5bec6"
   d="m 177.216,250.788 c -0.313,-0.864 -0.705,-1.764 -1.02,-2.68 -0.974,-1.421 -1.703,-3.071 -2.131,-4.753 -0.277,0.193 -0.546,0.397 -0.778,0.659 -0.488,0.549 -0.988,1.203 -1.339,1.889 0.91,3.945 5.858,5.638 5.729,10.025 -0.012,0.398 -0.215,0.664 -0.479,0.825 -0.209,1.199 0.741,2.585 2.046,2.077 0.61,-0.237 0.981,-0.794 0.882,-1.457 -0.046,-0.31 -0.192,-0.684 -0.355,-0.949 -0.18,-0.292 -0.47,-0.453 -0.617,-0.766 -0.054,-0.115 -0.064,-0.244 -0.05,-0.368 -0.804,-1.42 -1.331,-2.962 -1.888,-4.502 z"
   id="path16" />
		<path
   style="fill:#ff7b22"
   d="m 150.982,314.829 c -0.146,1.134 -0.32,2.541 -0.731,3.218 -1.033,1.728 -3.867,2.925 -5.713,3.035 -2.87,0.174 -6.207,-0.558 -9.068,-0.887 -2.075,-0.238 -4.644,-0.073 -4.799,-3.172 -0.009,-0.201 -0.009,-0.421 0,-0.649 0.037,-0.713 0.686,-1.554 1.362,-2.304 1.828,0.119 3.656,0.219 5.494,0.302 4.479,0.211 8.976,0.348 13.455,0.457 z"
   id="path17" />
		<path
   style="fill:#f07565"
   d="m 215.122,235.137 c 6.11,-0.848 12.383,-0.818 18.535,-1 2.112,-0.063 4.315,-0.231 6.544,-0.383 -0.22,-0.998 0.032,-2.26 0.177,-3.304 -8.237,0.829 -17.035,2.367 -25.339,2.001 0,0.004 0.002,0.009 0.002,0.013 0.03,0.89 0.054,1.781 0.081,2.673 z"
   id="path18" />
		<path
   style="fill:#9c4818"
   d="m 270.979,178.635 c -2.614,-1.033 -5.284,-1.783 -8.044,-2.24 -1.326,-0.238 -2.678,-0.402 -4.05,-0.503 -0.905,-0.064 -1.316,1.033 -0.942,1.719 0.576,1.051 1.225,1.883 2.011,2.578 -6.088,1.133 -12.021,-0.402 -17.149,-3.958 -0.1,-0.11 -0.229,-0.201 -0.375,-0.265 -0.036,-0.027 -0.082,-0.055 -0.128,-0.091 1.033,-1.216 1.993,-2.477 2.87,-3.766 4.443,-0.631 8.73,-2.148 12.606,-4.379 0.686,-0.384 1.353,-0.795 2.002,-1.225 3.766,3.282 9.406,3.583 14.279,2.349 -2.075,1.262 -4.269,2.185 -6.865,2.66 -0.85,0.146 -1.134,1.444 -0.484,1.975 1.855,1.489 3.254,3.153 4.269,5.146 z"
   id="path19" />
		<path
   style="fill:#fc3535"
   d="m 257.633,164.374 c -4.543,2.88 -18.922,9.708 -21.564,1.6 -1.216,-3.711 -0.85,-8.529 -1.225,-12.423 -0.357,-3.629 -0.731,-7.249 -1.289,-10.851 0.475,-0.74 0.329,-1.929 -0.786,-2.24 -9.69,-2.742 -19.462,-5.229 -29.224,-7.697 -8.51,-2.157 -17.085,-4.863 -25.76,-6.417 4.799,-0.704 9.708,-1.28 14.324,-2.569 0.677,-0.192 0.951,-0.832 0.868,-1.426 1.326,-2.093 2.815,-4.031 4.434,-5.823 9.095,-10.028 22.432,-15.238 36.227,-14.599 9.123,0.421 18.548,3.455 25.842,9.059 4.388,3.382 7.999,7.688 10.302,12.926 6.416,14.554 1.27,31.913 -12.149,40.46 z"
   id="path20" />
		<path
   style="fill:#f07565"
   d="m 232.589,162.15 c -2.04,1.249 -3.933,2.485 -4.467,5.149 -0.616,3.073 0.305,6.362 1.504,9.302 1.883,-2.047 3.63,-4.292 5.257,-6.761 -0.773,-0.918 -1.349,-2.12 -1.652,-3.695 -0.251,-1.308 -0.458,-2.646 -0.642,-3.995 z"
   id="path21" />
		<path
   style="fill:#9c4818"
   d="m 211.844,141.138 c 0.603,0.841 1.234,1.645 1.892,2.413 -7.605,-1.298 -14.571,-4.406 -20.531,-9.525 -0.539,-0.466 -1.252,0.274 -0.759,0.786 0.055,0.055 0.11,0.11 0.165,0.174 -0.046,0.082 -0.082,0.174 -0.091,0.274 -0.256,3.145 -0.165,6.445 0.164,9.772 -0.923,-0.073 -1.764,-0.311 -2.514,-0.686 -2.907,-1.435 -4.287,-4.881 -2.477,-8.492 0.393,-0.777 -0.43,-1.572 -1.188,-1.152 -1.7,0.914 -3.41,1.828 -5.137,2.697 2.048,-2.596 4.616,-4.287 7.843,-5.768 0.74,0.201 1.481,0.402 2.221,0.594 3.547,0.951 7.103,1.874 10.595,2.861 7.505,2.121 15.028,4.232 22.57,6.234 -3.894,0.201 -7.688,-0.247 -11.719,-1.572 -0.75,-0.247 -1.5,0.74 -1.034,1.39 z"
   id="path22" />
		<path
   style="fill:#fc8f1a"
   d="m 183.853,388.212 c 0.143,0.371 0.287,0.773 0.434,1.195 0.499,-0.38 1.624,-0.896 2.572,-0.95 0.97,-0.326 2.03,-0.503 3.081,-0.608 2.888,-0.289 5.577,-0.328 8.325,-1.434 1.988,-0.8 3.737,-1.952 5.498,-3.132 -0.426,-0.432 -0.615,-1.1 -0.624,-1.793 0.004,-0.007 0.006,-0.015 0.01,-0.022 -1.344,1.238 -3.663,1.828 -5.231,2.312 -4.78,1.477 -9.871,1.61 -14.065,4.432 z"
   id="path23" />
		<path
   style="fill:#db193a"
   d="m 280.449,236.157 c 0.053,0.672 -0.328,1.068 -0.812,1.202 4.776,13.243 7.695,27.25 9.899,41.141 4.99,-0.253 10.148,-0.815 14.689,-2.765 1.909,-1.561 2.703,-3.818 2.149,-6.975 -0.372,-2.121 -1.017,-4.231 -1.567,-6.312 -1.204,-4.561 -2.537,-9.088 -4.033,-13.561 -3.124,-9.34 -6.911,-18.462 -11.756,-27.048 -4.446,-7.879 -9.728,-15.319 -15.996,-21.857 0.618,1.585 1.137,3.188 1.582,4.712 2.992,10.243 5.004,20.825 5.845,31.463 z"
   id="path24" />
		<path
   style="fill:#ffffff"
   d="m 227.878,390.802 c -3.547,0.686 -7.103,1.353 -10.668,1.947 -8.739,1.472 -17.953,1.828 -26.619,3.684 -0.475,0.1 -0.951,0.21 -1.417,0.32 -1.828,-0.658 -2.962,-2.468 -3.794,-4.406 6.975,-3.145 15.531,-1.261 20.339,-8.702 0.082,-0.11 0.101,-0.238 0.101,-0.357 0.101,-0.219 0.11,-0.494 -0.036,-0.74 -0.219,-0.375 -0.594,-0.695 -0.622,-1.152 -0.037,-0.622 0.484,-1.042 1.015,-1.252 1.133,-0.457 2.276,-0.009 3.428,0.101 0.037,0.768 0.037,2.249 1.033,2.148 0.613,0.676 1.371,1.143 2.194,1.417 1.81,0.622 3.94,0.311 5.622,-0.704 1.271,-0.777 2.633,-2.304 3.236,-3.949 0.695,0.009 1.38,0.064 1.801,0.75 0.576,0.941 -0.229,1.846 0.1,2.751 0.101,0.293 0.329,0.448 0.631,0.475 0.722,0.96 1.472,1.901 2.048,2.971 0.74,1.353 1.024,2.742 1.38,4.223 0.045,0.183 0.127,0.347 0.228,0.475 z"
   id="path25" />
		<path
   style="fill:#fc3535"
   d="m 277.359,231.827 c -3.675,0.064 -7.249,-0.055 -10.805,-0.347 -5.055,-0.411 -10.065,-1.152 -15.202,-2.121 -0.567,-9.297 -2.102,-29.106 3.254,-36.062 1.947,-2.532 4.808,-3.373 8.949,-1.389 0.804,0.375 1.527,0.859 2.194,1.408 0.119,0.091 0.229,0.192 0.338,0.283 4.872,4.305 6.307,12.642 7.733,18.474 1.601,6.518 2.707,13.109 3.539,19.754 z"
   id="path26" />
		<path
   style="fill:#fca870"
   d="m 244.131,179.915 c -1.6,1.627 -3.272,3.3 -4.9,5.019 -1.38,1.453 -2.733,2.953 -3.995,4.488 -0.384,-0.759 -0.978,-1.481 -1.508,-2.048 -0.165,-0.174 -0.311,-0.32 -0.457,-0.457 -0.357,-0.347 -0.722,-0.631 -1.115,-0.878 1.764,-0.996 3.318,-2.432 4.872,-3.684 1.609,-1.298 3.19,-2.605 4.781,-3.921 0.75,0.539 1.518,1.051 2.322,1.481 z"
   id="path27" />
		<path
   style="fill:#4691b2"
   d="m 251.974,182.529 c -1.783,2.194 -3.556,4.351 -5.348,6.49 -3.812,4.543 -7.697,8.967 -11.929,13.246 -0.868,-2.368 -1.261,-4.744 -1.627,-7.295 3.126,-2.386 5.997,-5.393 8.693,-8.474 1.618,-1.828 3.181,-3.693 4.699,-5.466 1.773,0.731 3.629,1.216 5.512,1.499 z"
   id="path28" />
		<path
   style="fill:#fc3535"
   d="m 259.269,188.324 c -2.934,0.137 -5.165,1.527 -6.81,3.547 -2.194,2.715 -3.355,6.563 -3.766,10.101 -1.17,9.991 -1.618,21.537 0.768,31.373 0.009,0.046 0.037,0.082 0.055,0.128 -0.009,0.028 -0.009,0.055 -0.018,0.092 -1.7,-0.11 -3.437,-0.101 -5.174,-0.037 -1.399,-10.604 -2.742,-21.464 -5.293,-31.857 3.51,-3.629 6.929,-7.505 10.019,-11.545 1.536,-1.993 2.98,-4.031 4.324,-6.097 1.973,1.434 3.948,2.86 5.895,4.295 z"
   id="path29" />
		<path
   style="fill:#fca870"
   d="m 270.787,247.331 c -2.56,0.704 -5.256,0.594 -7.889,0.53 -5.403,-0.128 -10.805,-0.329 -16.217,-0.494 -10.357,-0.32 -21.034,-1.225 -31.391,-0.521 0.009,-1.344 0,-2.688 -0.018,-4.031 -0.009,-1.993 -0.046,-3.995 -0.1,-5.988 6.417,0.567 12.99,0.146 19.416,-0.009 5.878,-0.146 12.523,0.53 18.273,-0.832 3.282,1.664 7.221,2.724 11.244,3.154 3.958,0.439 7.999,0.247 11.564,-0.585 1.919,3.931 -0.933,7.697 -4.882,8.776 z"
   id="path30" />
		<path
   style="fill:#fca870"
   d="m 231.425,143.103 c -0.484,-0.128 -0.969,-0.256 -1.453,-0.384 -4.863,1.207 -9.946,0.996 -14.772,-0.292 0.686,0.658 1.463,1.207 2.386,1.719 0.987,0.558 0.658,2.322 -0.576,2.258 -8.712,-0.475 -16.637,-4.068 -22.917,-9.955 0.357,2.166 0.695,4.324 1.042,6.472 0.914,5.878 1.837,11.719 3.126,17.597 2.505,0.229 4.918,1.197 7.432,1.517 3.017,0.384 6.143,0.32 9.159,-0.018 2.578,-0.283 5.128,-0.823 7.615,-1.581 0.878,-0.265 1.755,-0.567 2.614,-0.887 2.34,-0.878 4.516,-2.23 6.902,-2.916 -0.385,-4.526 -0.513,-9.124 -0.558,-13.53 z m -33.384,3.062 c 0.146,-0.229 0.311,-0.421 0.484,-0.576 1.792,-1.764 5.119,-0.85 6.883,0.503 1.252,0.96 -0.466,2.706 -1.7,1.764 -0.914,-0.685 -1.828,-0.823 -2.779,-0.823 -0.74,0.009 -1.508,0.101 -2.313,0.092 -0.456,-0.009 -0.84,-0.53 -0.575,-0.96 z m 4.488,13.758 c -0.832,0.009 -1.335,-0.64 -1.444,-1.389 -0.21,-1.508 -0.494,-3.227 -0.265,-4.735 0.21,-1.353 2.066,-1.115 2.468,-0.046 0.274,0.75 0.302,1.572 0.393,2.368 0.082,0.777 0.192,1.572 0.238,2.358 0.055,0.767 -0.649,1.425 -1.39,1.444 z m 5.513,0.301 c -0.411,0.201 -0.923,-0.192 -0.667,-0.64 0.868,-1.527 3.062,-2.88 4.799,-3.007 0.32,-0.027 0.539,0.439 0.283,0.658 -0.658,0.585 -1.399,0.969 -2.13,1.444 -0.777,0.494 -1.463,1.143 -2.285,1.545 z m 7.13,-2.413 c -0.302,0.448 -0.795,0.722 -1.252,1.006 -0.503,0.311 -1.015,0.622 -1.517,0.932 -0.512,0.311 -0.951,-0.448 -0.475,-0.786 0.457,-0.329 0.905,-0.658 1.362,-0.987 0.421,-0.293 0.868,-0.686 1.389,-0.786 0.328,-0.074 0.731,0.283 0.493,0.621 z"
   id="path31" />
		<path
   style="fill:#95bcc4"
   d="m 288.841,281.446 c -0.32,4.653 -2.989,7.944 -6.545,10.247 -0.027,-0.046 -0.046,-0.091 -0.082,-0.137 -1.088,-1.7 -2.294,-3.3 -3.355,-5.009 -0.247,-0.384 -0.484,-0.777 -0.713,-1.179 -0.704,-1.243 -1.261,-2.642 -1.965,-3.931 1.362,0.082 2.715,0.137 4.077,0.165 1.901,0.036 3.803,0.018 5.695,-0.046 0.95,-0.028 1.919,-0.064 2.888,-0.11 z"
   id="path32" />
		<path
   style="fill:#58edc6"
   d="m 228.088,178.196 c -4.689,4.635 -10.22,8.126 -16.939,10.604 -0.146,-0.082 -0.311,-0.146 -0.494,-0.155 -0.091,-0.009 -0.174,-0.018 -0.265,-0.027 -5.64,-0.649 -10.01,-8.072 -13.383,-12.048 -2.468,-2.916 -4.945,-5.485 -3.41,-9.617 0.64,-1.755 2.505,-3.282 3.775,-4.827 0.192,-0.027 0.375,-0.11 0.53,-0.229 4.561,3.3 12.551,3.199 17.716,2.578 2.066,-0.247 4.507,-0.631 6.966,-1.243 3.529,-0.887 7.084,-2.24 9.607,-4.351 0.055,0.558 0.137,1.106 0.201,1.664 -2.624,0.996 -5.119,2.816 -6.015,5.521 -1.232,3.748 0.194,8.501 1.711,12.13 z"
   id="path33" />
		<path
   style="fill:#aa9fa1"
   d="m 242.02,172.38 c -2.19,0.031 -4.21,-0.315 -5.781,-1.344 -2.988,6.675 -8.354,12.406 -14.769,16.135 8.173,-2.698 15.196,-7.345 20.55,-14.791 z"
   id="path34" />
		<path
   style="fill:#fc8f1a"
   d="m 110.049,304.691 c -0.81,0.588 -1.602,1.179 -2.344,1.794 -2.651,2.199 -5.077,4.728 -7.848,6.774 -0.579,4.265 -2.557,8.78 0.028,12.808 1.555,2.423 3.868,2.643 6.11,3.242 -1.13,-1.873 -1.86,-4.029 -2.115,-6.339 -0.742,-6.735 2.329,-12.953 6.169,-18.279 z"
   id="path35" />
		<path
   style="fill:#6395a5"
   d="m 289.715,281.404 c -0.889,13.482 -17.387,15.645 -27.811,17.706 -17.528,3.466 -35.35,6.187 -52.755,10.164 1.885,10.957 2.609,22.074 4.742,33.026 1.679,8.618 4.282,16.995 6.437,25.47 1.238,-0.246 2.477,-0.484 3.719,-0.709 -1.324,-7.167 -2.736,-14.318 -4.261,-21.445 -1.791,-8.373 -4.404,-16.832 -5.419,-25.354 -0.007,-0.03 -0.025,-0.052 -0.029,-0.084 -0.006,-0.053 0.001,-0.106 -0.002,-0.159 -0.035,-0.303 -0.084,-0.605 -0.115,-0.908 -0.029,-0.284 0.071,-0.478 0.226,-0.605 0.053,-0.378 0.103,-0.757 0.09,-1.134 -0.022,-0.648 -0.177,-1.414 -0.401,-2.11 -0.86,-0.67 -0.571,-2.54 0.898,-2.737 16.861,-2.261 33.743,-4.515 50.739,-5.464 8.275,-0.462 17.14,-0.151 24.775,-3.891 8.009,-3.923 10.609,-10.443 9.937,-18.855 -0.016,-0.194 0.039,-0.352 0.131,-0.478 -0.006,-0.014 -0.015,-0.026 -0.021,-0.041 -0.487,-1.22 -0.572,-2.719 -0.224,-4.04 -3.392,1.081 -7.068,1.459 -10.656,1.648 z"
   id="path36" />
		<path
   style="fill:#6395a5"
   d="m 221.735,373.651 c 1.129,-0.18 2.261,-0.368 3.403,-0.576 -0.302,-1.699 -0.614,-3.397 -0.925,-5.094 -1.196,0.318 -2.397,0.618 -3.603,0.905 0.394,1.584 0.776,3.171 1.125,4.765 z"
   id="path37" />
		<path
   style="fill:#6395a5"
   d="m 226.309,355.497 c -2.86,-6.21 -3.631,-13.947 -4.98,-20.589 -1.272,-6.262 -3.256,-13.283 -3.315,-19.81 -0.556,0.074 -1.112,0.148 -1.668,0.222 0.25,0.544 0.398,1.149 0.446,1.838 0.062,0.871 -0.094,1.954 -0.601,2.744 3.243,8.147 4.751,17.234 6.612,25.753 0.865,3.96 1.684,7.927 2.475,11.901 0.33,-0.69 0.678,-1.375 1.031,-2.059 z"
   id="path38" />
		<path
   style="fill:#ffc024"
   d="m 144.227,378.9 c -2.459,-0.722 -5.046,-1.188 -7.459,-1.801 -4.26,-1.097 -7.212,-2.294 -10.439,-5.11 -0.091,-0.503 -0.42,-0.951 -1.079,-1.115 -7.834,-1.938 -15.604,-4.15 -23.273,-6.682 -3.062,-1.015 -6.116,-2.075 -9.15,-3.181 -0.219,-0.082 -0.43,-0.155 -0.649,-0.238 -4.525,-1.673 -11.344,-2.879 -7.359,-9.525 3.181,-5.311 9.479,-9.132 15.22,-10.988 2.998,-0.96 5.887,-1.344 8.803,-1.399 2.578,-0.046 5.174,0.155 7.862,0.43 7.404,11.244 15.275,22.204 23.036,33.192 1.507,2.121 2.997,4.269 4.487,6.417 z"
   id="path39" />
		<path
   style="fill:#b5bec6"
   d="m 404.674,304.668 c -8.395,0.003 -16.79,0.003 -25.186,0 -8.695,-0.004 -17.39,0.007 -26.086,-0.011 -7.629,-0.016 -15.557,0.454 -23.148,-0.469 -0.301,0.548 -0.591,1.128 -0.495,1.766 0.1,0.666 0.497,1.041 0.979,1.372 16.562,-0.333 33.152,-0.083 49.717,-0.087 8.154,-0.002 16.308,-0.003 24.462,-0.005 7.514,-0.002 15.454,-0.702 22.932,0.25 0.134,-0.501 0.281,-0.995 0.314,-1.521 0.034,-0.539 -0.075,-1.052 -0.132,-1.572 -7.491,1.199 -15.838,0.275 -23.357,0.277 z"
   id="path40" />
		<path
   style="fill:#95bcc4"
   d="m 218.946,369.279 c -5.2,1.181 -10.467,2.115 -15.718,2.98 0.284,1.108 0.531,2.217 0.697,3.329 5.681,-0.39 11.117,-0.92 16.643,-1.756 -0.585,-1.489 -1.116,-3.013 -1.622,-4.553 z"
   id="path41" />
		<path
   style="fill:#fc3535"
   d="m 288.448,278.557 c -0.859,0.036 -1.709,0.064 -2.55,0.091 -1.728,0.055 -3.455,0.073 -5.183,0.046 -5.466,-0.082 -10.933,-0.594 -16.326,-1.499 -3.337,-0.558 -6.646,-1.289 -9.909,-2.157 -1.326,-0.347 -3.547,-0.622 -4.562,-1.508 -2.185,-1.91 -1.929,-4.918 -1.554,-7.359 0.448,-2.898 0.658,-5.942 0.466,-8.949 -0.146,-2.331 -0.539,-4.626 -1.262,-6.81 4.562,0.046 9.096,0.1 13.584,0.238 5.064,0.155 10.896,0.585 14.992,-3.026 0.393,-0.347 0.75,-0.722 1.07,-1.115 1.463,-1.81 2.112,-4.049 1.737,-6.198 -0.137,-0.832 -0.43,-1.655 -0.896,-2.423 0.329,-0.119 0.658,-0.238 0.978,-0.366 0.256,0.896 0.512,1.792 0.768,2.678 0.868,3.071 1.719,6.143 2.523,9.214 2.531,9.599 4.716,19.234 6.124,29.143 z"
   id="path42" />
		<path
   style="fill:#fca870"
   d="m 219.084,377.492 c -0.393,1.216 -0.704,2.386 -2.066,3.245 -0.951,0.603 -2.02,0.777 -3.099,0.731 -0.731,-0.018 -1.472,-0.146 -2.185,-0.311 0.091,-0.841 0.037,-1.691 -0.183,-2.523 -0.037,-0.11 -0.073,-0.238 -0.11,-0.375 0.932,-0.018 1.865,-0.064 2.806,-0.137 1.62,-0.136 3.247,-0.346 4.837,-0.63 z"
   id="path43" />
		<path
   style="fill:#6d5e61"
   d="m 317.763,305.213 c -2.441,0.064 -4.991,-0.037 -7.158,0.146 -1.198,0.1 -2.276,0.283 -3.163,0.631 -3.812,1.499 -7.368,4.781 -8.328,8.84 -3.327,0.219 -6.637,0.622 -9.9,1.243 -10,-1.198 -20.165,-1.417 -30.221,-1.984 -6.993,-0.393 -14.077,-1.143 -21.144,-1.527 2.779,-0.329 5.558,-0.649 8.346,-0.932 10.366,-1.079 20.769,-1.298 31.135,-2.212 6.618,-0.585 13.538,-2.093 18.876,-6.198 0.741,-0.567 1.453,-1.188 2.13,-1.865 0.329,-0.338 0.649,-0.695 0.969,-1.07 3.117,0.74 6.344,0.969 9.507,1.426 3.613,0.513 6.191,1.546 8.951,3.502 z"
   id="path44" />
		<path
   style="fill:#db193a"
   d="m 433.149,227.506 c 0.286,1.388 0.448,2.689 0.509,3.69 0.057,0.934 0.17,2.009 0.258,3.134 0.717,-0.775 1.259,-1.643 1.263,-2.988 0.007,-1.785 -0.949,-2.802 -2.03,-3.836 z"
   id="path45" />
		<path
   style="fill:#b5bec6"
   d="m 330.299,244.586 c -10e-4,6.618 -10e-4,13.236 -0.002,19.855 -0.001,6.919 -0.001,13.838 -0.002,20.757 0,5.566 0.6,11.642 -0.247,17.227 0.83,-0.107 1.666,-0.188 2.505,-0.262 0.021,-1.22 0.085,-2.429 0.168,-3.636 -0.59,-5.248 -0.177,-10.777 -0.179,-15.981 -0.002,-6.566 -0.004,-13.133 -0.006,-19.699 -0.002,-6.865 0.003,-13.73 0.013,-20.595 0.009,-5.504 -0.464,-11.295 0.246,-16.786 -0.051,-0.03 -0.106,-0.048 -0.153,-0.086 -0.502,-0.405 -0.835,-0.803 -1.519,-0.884 -0.422,-0.05 -0.871,0.031 -1.284,0.178 1.133,6.441 0.461,13.393 0.46,19.912 z"
   id="path46" />
		<path
   style="fill:#fc3535"
   d="m 429.122,241.563 c -1.417,-2.514 -4.845,-4.306 -7.267,-5.402 -2.642,-1.197 -5.512,-1.901 -8.392,-1.627 -11.829,-0.686 -23.95,0.009 -35.779,0.018 -12.587,0.018 -25.358,0.804 -37.927,0.283 0.037,-1.326 0.064,-2.66 0.046,-3.976 -0.027,-2.34 -0.192,-4.653 -0.649,-6.847 -0.027,-0.11 -0.073,-0.192 -0.119,-0.274 0.256,-0.585 0.439,-1.225 0.859,-1.728 0.768,-0.914 1.582,-1.143 2.578,-1.444 6.234,0.74 12.798,0.219 19.041,0.219 h 21.683 c 7.222,0 14.452,0.018 21.674,0 6.371,-0.018 12.917,0.256 19.279,-0.393 3.026,0.53 4.616,2.313 5.485,4.607 0.722,1.874 0.951,4.095 1.079,6.253 0.191,3.153 1.242,8.327 -1.591,10.311 z"
   id="path47" />
		<path
   style="fill:#ffc024"
   d="m 281.016,318.102 c -14.114,4.36 -26.51,13.054 -33.384,27.094 -6.07,12.386 -7.587,28.758 -3.044,42.022 -4.79,1.124 -9.598,2.167 -14.416,3.135 0.037,-0.128 0.064,-0.274 0.055,-0.43 -0.137,-3.017 -1.892,-6.499 -4.488,-8.227 0.046,-0.128 0.082,-0.256 0.101,-0.375 0.183,-0.969 -0.018,-1.956 -0.603,-2.761 -0.411,-0.558 -1.07,-1.033 -1.792,-1.289 -0.475,-0.174 -0.978,-0.256 -1.463,-0.219 -0.009,-0.055 -0.009,-0.11 -0.018,-0.165 0.85,-0.201 1.682,-0.43 2.505,-0.676 0.868,-0.256 1.718,-0.539 2.541,-0.85 0.695,-0.256 0.951,-0.814 0.896,-1.344 0.21,-0.311 0.32,-0.713 0.238,-1.17 -0.036,-0.229 -0.082,-0.466 -0.128,-0.695 -0.594,-3.41 -1.234,-6.801 -1.883,-10.202 5.457,-6.783 8.858,-17.834 8.364,-26.199 -0.274,-4.772 -2.221,-8.757 -4.561,-12.606 -1.792,-2.962 -3.803,-5.832 -5.466,-8.904 1.298,-0.174 2.587,-0.338 3.885,-0.503 9.443,1.783 19.334,2.084 28.877,2.843 7.869,0.625 15.84,1.338 23.784,1.521 z"
   id="path48" />
		<path
   style="fill:#fc8f1a"
   d="m 186.183,398.149 c -1.845,-1.337 -2.792,-3.842 -3.722,-6.118 -2.645,-6.472 -5.16,-13 -7.605,-19.55 -2.446,-6.551 -4.814,-13.132 -7.072,-19.749 -2.053,-6.014 -4.738,-12.318 -5.553,-18.641 -0.031,-0.245 0.061,-0.441 0.209,-0.588 0.01,-0.039 0.014,-0.076 0.028,-0.117 5.527,-16.036 11.499,-31.936 17.295,-47.877 1.448,-3.983 2.991,-7.948 4.349,-11.963 0.41,-1.213 0.876,-2.445 1.071,-3.72 0.306,-1.998 -0.205,-3.431 -1.174,-4.396 -8.967,22.459 -18.921,44.487 -26.855,67.372 -0.071,0.206 -0.209,0.336 -0.37,0.405 8.091,21.818 16.539,43.478 25.079,65.123 0.074,0.187 0.056,0.346 -0.011,0.474 1.421,-0.336 2.878,-0.499 4.331,-0.655 z"
   id="path49" />
		<path
   style="fill:#b5bec6"
   d="m 327.371,305.03 c -1.387,1.252 -3.255,2.135 -5.192,2.496 -4.243,0.791 -8.665,-0.613 -12.857,0.538 -3.819,1.049 -6.061,3.583 -8.047,6.651 2.402,-0.094 4.802,-0.081 7.186,0.022 3.03,-7.131 12.937,-4.963 20.305,-5.775 -1.047,-0.957 -1.596,-2.531 -1.395,-3.932 z"
   id="path50" />
		<path
   style="fill:#ffffff"
   d="m 277.762,235.237 c -3.995,0.439 -7.834,1.152 -11.902,0.96 -0.201,0 -0.411,-0.009 -0.622,-0.027 -4.817,-0.32 -9.159,-1.801 -13.776,-2.87 0.027,-0.082 0.055,-0.174 0.055,-0.274 -0.009,-0.704 -0.055,-1.7 -0.119,-2.907 4.845,1.39 9.964,2.23 15.11,2.605 3.684,0.283 7.377,0.32 10.979,0.146 0.092,0.786 0.183,1.572 0.275,2.367 z"
   id="path51" />
		<path
   style="fill:#aa9fa1"
   d="m 324.336,392.804 c -2.733,3.199 -8.565,2.331 -10.028,-1.691 -0.375,-1.042 -0.466,-2.093 -0.302,-3.062 0.439,-2.843 2.934,-5.073 6.152,-4.982 0.612,0.018 1.161,0.101 1.664,0.247 0.731,0.548 1.426,1.179 2.011,1.865 1.902,2.211 2.752,5.009 0.503,7.623 z"
   id="path52" />
		<path
   style="fill:#ffc024"
   d="m 291.373,318.312 c -10.905,3.081 -20.888,9.352 -28.1,18.319 -2.34,2.916 -4.342,6.042 -5.997,9.324 -7.066,14.023 -7.797,30.797 -2.075,45.56 -27.021,5.85 -54.299,10.65 -81.85,14.361 -1.911,0.256 -3.83,0.512 -5.741,0.759 -0.027,-0.082 -0.064,-0.165 -0.119,-0.238 -8.008,-12.386 -17.387,-24.032 -25.897,-36.08 -4.214,-5.96 -8.337,-11.984 -12.469,-17.999 -4.26,-6.189 -8.52,-12.377 -12.889,-18.483 -0.146,-0.201 -0.311,-0.338 -0.494,-0.43 -0.146,-0.137 -0.329,-0.238 -0.567,-0.302 -6.243,-1.572 -8.556,-6.417 -8.565,-11.737 2.943,4.168 10.092,5.256 14.736,6.262 11.454,2.468 22.935,4.909 34.444,7.112 7.743,21.509 15.942,42.9 24.809,63.961 0.11,0.256 0.311,0.375 0.53,0.411 -0.119,0.247 0.046,0.613 0.384,0.622 2.112,0.11 4.251,-0.21 6.362,-0.43 1.015,-0.101 2.048,-0.165 3.071,-0.274 8.648,0 17.725,-2.048 26.199,-3.446 9.69,-1.6 19.315,-3.556 28.886,-5.814 0.53,0.082 1.097,-0.329 1.07,-1.024 0.046,-0.274 0.009,-0.558 -0.101,-0.823 -0.914,-5.759 -1.627,-11.472 -1.728,-17.094 -0.192,-9.69 1.426,-19.114 6.902,-28.1 7.916,-12.98 22.067,-20.988 36.684,-23.968 0.842,-0.174 1.683,-0.312 2.515,-0.449 z"
   id="path53" />
		<path
   style="fill:#b3b3ba"
   d="m 329.94,383.398 c -1.225,-2.742 -3.282,-4.982 -6.042,-5.64 -32.259,9.425 -65.104,17.121 -98.195,23.072 7.816,-0.229 15.695,0.009 23.456,0.009 7.011,-0.009 14.032,-0.018 21.052,-0.018 h 12.852 c 11.6,0.018 23.228,0 34.782,-1.097 5.165,-0.494 11.673,-1.426 13.099,-7.423 0.65,-2.706 0.266,-6.069 -1.004,-8.903 z m -3.703,11.234 c -4.004,4.699 -12.139,3.373 -14.279,-2.459 -0.411,-1.134 -0.585,-2.276 -0.548,-3.373 0.164,-4.735 4.205,-8.73 9.406,-8.172 2.386,0.256 4.479,1.755 5.777,3.748 0.804,1.225 1.316,2.633 1.417,4.05 0.33,2.193 -0.274,4.451 -1.773,6.206 z"
   id="path54" />
		<path
   style="fill:#6d5e61"
   d="m 140.269,425.475 c -0.146,0.091 -0.302,0.183 -0.457,0.274 -12.203,7.13 -28.091,6.682 -40.916,1.426 -12.99,-5.32 -21.208,-15.54 -22.826,-29.59 -1.198,-10.302 0.21,-19.654 5.302,-27.616 1.49,-2.331 3.3,-4.552 5.457,-6.637 0.037,0.018 0.064,0.055 0.101,0.073 5.658,2.596 12.002,3.976 17.99,5.649 -3.309,1.7 -6.115,4.497 -8.172,7.752 -2.057,3.245 -3.346,6.947 -3.638,10.467 -0.832,10.019 5.064,19.836 14.443,23.539 7.834,3.09 16.6,1.719 22.99,-3.327 1.49,-1.17 2.843,-2.541 4.031,-4.095 4.296,-5.622 6.6,-14.864 3.19,-21.464 1.755,0.777 3.611,1.316 5.485,1.755 1.609,0.384 3.282,0.859 4.945,0.951 2.358,3.391 4.726,6.783 7.139,10.128 1.015,12.661 -3.72,23.868 -15.064,30.715 z"
   id="path55" />
		<path
   style="fill:#b3b3ba"
   d="m 118.293,383.087 c -1.079,2.276 -2.13,4.561 -3.135,6.856 -0.567,1.307 -1.115,2.633 -1.645,3.958 -1.719,-1.033 -3.547,-1.883 -5.302,-2.87 0.448,-1.947 1.079,-3.803 2.002,-5.585 0.146,-0.274 0.302,-0.548 0.457,-0.823 1.846,-3.163 4.762,-2.258 7.623,-1.536 z"
   id="path56" />
		<path
   style="fill:#b3b3ba"
   d="m 133.001,379.513 c -2.23,3.83 -4.141,7.843 -6.335,11.692 -1.097,1.91 -2.313,3.821 -4.324,4.826 -0.027,0.009 -0.046,0.027 -0.073,0.037 -2.276,1.097 -4.607,0.137 -6.92,-0.357 0.951,-1.399 1.837,-2.88 2.669,-4.406 2.934,-5.366 5.229,-11.381 7.221,-17.03 1.088,2.093 3.373,3.373 5.677,4.232 0.603,0.228 1.234,0.457 1.874,0.686 0.046,0.082 0.101,0.174 0.174,0.265 0.01,0.018 0.019,0.036 0.037,0.055 z"
   id="path57" />
		<path
   style="fill:#aa9fa1"
   d="m 131.036,403.646 c -0.613,0.64 -1.262,1.234 -1.938,1.773 -6.262,5.046 -15.065,5.914 -22.359,2.23 -7.733,-3.903 -12.203,-12.825 -10.942,-21.381 0.475,-3.236 1.627,-5.896 3.254,-8.154 2.377,-3.309 5.759,-5.768 9.507,-7.962 4.58,1.463 9.388,3.135 14.041,3.602 -1.015,2.322 -2.093,4.626 -3.181,6.929 -3.044,-0.768 -6.792,-2.349 -9.278,0.21 -0.859,0.878 -1.591,1.938 -2.203,3.09 -1.225,2.313 -1.993,5 -2.422,7.377 -0.1,0.558 0.101,1.143 0.613,1.426 2.112,1.17 4.351,2.358 6.737,2.834 -0.128,0.567 0.229,0.951 0.704,1.097 3.702,3.656 7.103,3.684 10.11,1.847 4.927,-2.998 8.794,-10.997 11.198,-16.271 3.719,6.955 1.744,15.511 -3.841,21.353 z"
   id="path58" />
		<path
   style="fill:#aa9fa1"
   d="m 337.216,400.035 c -0.302,0.439 -0.622,0.859 -0.969,1.271 -3.437,4.086 -8.437,6.417 -13.767,6.463 -4.315,0.027 -7.541,-1.508 -10.933,-3.245 -0.631,-0.32 -1.271,-0.649 -1.92,-0.969 2.386,-0.027 4.982,-0.073 7.569,-0.311 2.797,-0.238 5.576,-0.695 8.053,-1.545 3.812,-1.298 6.929,-3.538 8.282,-7.386 2.121,-6.006 0.128,-13.319 -4.571,-16.792 0.923,-0.192 1.837,-0.439 2.752,-0.713 3.446,2.048 6.28,4.525 7.733,8.73 1.72,4.981 0.733,10.264 -2.229,14.497 z"
   id="path59" />
		<path
   style="fill:#ffc024"
   d="m 351.321,328.843 c -0.247,-0.009 -0.494,-0.11 -0.64,-0.338 -3.19,-1.655 -6.463,-3.035 -9.589,-4.123 -2.313,-0.795 -4.653,-1.554 -7.02,-2.249 -5.887,-1.737 -11.938,-3.108 -18.036,-3.94 -0.137,0.082 -0.311,0.137 -0.512,0.101 -18.986,-3.081 -39.134,4.232 -51.255,19.306 -6.234,7.761 -9.991,17.231 -11.207,27.03 -1.115,8.967 -0.101,18.218 3.099,26.683 38.347,-8.337 76.201,-18.794 113.634,-31.327 v -0.037 c 3.62,-14.478 -6.682,-24.789 -18.474,-31.106 z m -86.723,38.32 c -1.673,0.43 -2.423,-2.102 -0.759,-2.578 18.566,-5.311 37.497,-9.489 56.484,-13.008 0.548,-0.101 1.106,-0.201 1.655,-0.302 1.828,-0.329 2.669,2.459 0.832,2.797 -2.313,0.421 -4.616,0.859 -6.92,1.307 -17.232,3.347 -34.289,7.405 -51.292,11.784 z m -2.13,-12.761 c 19.105,-5.476 38.594,-9.726 58.138,-13.31 1.828,-0.338 2.66,2.459 0.823,2.797 -19.59,3.574 -38.923,8.127 -58.202,13.09 -1.673,0.43 -2.422,-2.102 -0.759,-2.577 z m 62.755,9.242 c -19.599,3.574 -38.932,8.127 -58.211,13.09 -1.673,0.43 -2.422,-2.103 -0.759,-2.578 1.874,-0.539 3.748,-1.06 5.631,-1.572 8.565,-2.34 17.213,-4.452 25.888,-6.372 8.84,-1.956 17.725,-3.739 26.619,-5.366 1.828,-0.329 2.669,2.459 0.832,2.798 z"
   id="path60" />
		<path
   style="fill:#fc8f1a"
   d="m 349.817,321.899 c -1.04,-1.722 -4.972,-1.075 -6.815,-1.176 -1.185,-0.064 -2.376,-0.128 -3.568,-0.201 3.757,1.228 7.426,2.675 10.91,4.376 -0.031,-1.184 -0.122,-2.328 -0.527,-2.999 z"
   id="path61" />
		<path
   style="fill:#6d5e61"
   d="m 322.535,316.384 c -1.682,-0.293 -3.355,-0.558 -5,-0.786 -0.466,-0.073 -0.932,-0.128 -1.39,-0.192 -1.709,-0.228 -3.437,-0.384 -5.183,-0.512 1.911,-1.426 4.004,-2.112 6.179,-2.431 1.737,-0.265 3.538,-0.311 5.348,-0.32 0.138,1.407 0.147,2.842 0.046,4.241 z"
   id="path62" />
		<path
   style="fill:#fc3535"
   d="m 352.606,326.054 c 2.332,1.245 4.571,2.607 6.673,4.112 0.528,0.378 1.045,0.772 1.554,1.176 0.039,-0.4 0.072,-0.808 0.05,-1.241 -0.078,-1.509 -0.514,-2.964 -1.322,-4.243 -1.692,-2.679 -4.261,-3.531 -7.132,-3.906 0.271,1.3 0.251,2.779 0.177,4.102 z"
   id="path63" />
		<path
   style="fill:#6d5e61"
   d="m 361.33,399.13 c -0.073,0.612 -0.155,1.225 -0.256,1.828 -1.719,10.969 -7.816,19.992 -17.99,24.718 -16.052,7.45 -46.547,3.565 -54.847,-14.27 -0.759,-1.627 -1.335,-3.373 -1.691,-5.229 4.004,0.256 8.145,-0.713 12.085,-1.289 2.715,-0.402 5.512,-0.704 8.245,-1.198 0.393,0.594 0.841,1.143 1.344,1.655 3.675,3.702 10.083,5.22 14.973,5.046 6.49,-0.229 12.505,-3.574 16.226,-8.876 0.402,-0.576 0.768,-1.17 1.088,-1.801 4.05,-7.77 2.304,-19.279 -4.936,-24.224 1.645,-0.612 3.282,-1.234 4.909,-1.764 3.775,-1.234 7.825,-2.057 11.527,-3.519 8.83,6.965 10.676,18.081 9.323,28.923 z"
   id="path64" />
		<path
   d="m 139.645,323.563 c 3.665,0.359 8.703,1.794 11.621,-1.238 2.841,-2.953 2.791,-8.884 3.464,-12.684 0.638,-3.601 1.538,-7.143 0.594,-10.613 -0.005,-0.054 -0.002,-0.105 -0.02,-0.165 -0.07,-0.234 -0.149,-0.45 -0.237,-0.651 -0.108,-0.3 -0.227,-0.599 -0.367,-0.898 -0.097,-0.208 -0.278,-0.311 -0.478,-0.348 -3.55,-3.437 -12.566,3.88 -15.085,5.921 -3.624,2.937 -16.091,12.951 -10.131,18.347 2.591,2.348 7.443,2.016 10.639,2.329 z m -6.287,-10.943 c 1.54,-1.911 3.22,-3.704 5.016,-5.377 1.923,-1.791 11.346,-10.447 14.973,-8.354 0.31,4.94 -1.236,9.926 -2.189,14.737 -0.016,0.079 -0.03,0.179 -0.045,0.271 -6.115,-0.284 -12.262,-0.526 -18.383,-0.581 0.244,-0.258 0.467,-0.497 0.628,-0.696 z m -2.684,3.757 c 0.036,-0.718 0.682,-1.555 1.36,-2.309 6.296,0.404 12.638,0.604 18.949,0.759 -0.146,1.14 -0.325,2.542 -0.729,3.218 -1.034,1.728 -3.873,2.93 -5.712,3.04 -2.876,0.171 -6.212,-0.556 -9.077,-0.889 -2.212,-0.258 -4.981,-0.059 -4.791,-3.819 z"
   id="path65" />
		<path
   d="m 326.235,394.637 c 1.501,-1.761 2.108,-4.015 1.772,-6.209 -0.263,-3.738 -3.342,-7.385 -7.186,-7.799 -6.416,-0.69 -11.068,5.543 -8.866,11.545 2.14,5.835 10.278,7.156 14.28,2.463 z m -6.077,-11.571 c 0.609,0.018 1.158,0.108 1.66,0.248 3.097,2.316 5.459,6.061 2.521,9.494 -2.738,3.199 -8.569,2.331 -10.028,-1.697 -1.483,-4.095 1.527,-8.17 5.847,-8.045 z"
   id="path66" />
		<path
   d="m 263.226,356.975 c 19.282,-4.96 38.615,-9.513 58.208,-13.09 1.837,-0.335 1.005,-3.127 -0.824,-2.792 -19.546,3.582 -39.033,7.837 -58.144,13.306 -1.665,0.476 -0.913,3.007 0.76,2.576 z"
   id="path67" />
		<path
   d="m 321.98,351.278 c -19.546,3.582 -39.033,7.837 -58.144,13.306 -1.664,0.476 -0.912,3.006 0.761,2.576 19.282,-4.96 38.615,-9.513 58.208,-13.09 1.837,-0.336 1.005,-3.128 -0.825,-2.792 z"
   id="path68" />
		<path
   d="m 267.011,376.73 c 19.282,-4.96 38.615,-9.513 58.207,-13.09 1.838,-0.336 1.005,-3.127 -0.824,-2.792 -19.546,3.582 -39.033,7.837 -58.144,13.306 -1.664,0.477 -0.913,3.007 0.761,2.576 z"
   id="path69" />
		<path
   d="m 203.704,147.857 c 1.242,0.939 2.958,-0.802 1.702,-1.766 -1.936,-1.486 -5.755,-2.437 -7.361,0.077 -0.273,0.428 0.112,0.946 0.571,0.954 1.827,0.033 3.468,-0.491 5.088,0.735 z"
   id="path70" />
		<path
   d="m 203.285,153.754 c -0.395,-1.067 -2.258,-1.309 -2.465,0.045 -0.23,1.506 0.053,3.228 0.267,4.73 0.108,0.758 0.61,1.407 1.443,1.392 0.742,-0.014 1.438,-0.675 1.392,-1.443 -0.048,-0.789 -0.156,-1.576 -0.243,-2.362 -0.086,-0.787 -0.118,-1.616 -0.394,-2.362 z"
   id="path71" />
		<path
   d="m 208.041,160.228 c 0.819,-0.405 1.513,-1.055 2.283,-1.548 0.737,-0.472 1.477,-0.864 2.135,-1.444 0.25,-0.22 0.039,-0.684 -0.287,-0.659 -1.735,0.132 -3.926,1.486 -4.8,3.006 -0.256,0.445 0.261,0.847 0.669,0.645 z"
   id="path72" />
		<path
   d="m 212.402,159.748 c 0.505,-0.311 1.011,-0.619 1.515,-0.932 0.457,-0.284 0.949,-0.555 1.256,-1.004 0.233,-0.34 -0.167,-0.695 -0.499,-0.626 -0.513,0.107 -0.965,0.492 -1.382,0.793 -0.456,0.328 -0.911,0.656 -1.367,0.984 -0.473,0.342 -0.033,1.099 0.477,0.785 z"
   id="path73" />
		<path
   d="m 432.601,225.306 c -1.062,-3.586 -2.991,-7.022 -6.168,-6.88 -13.508,-1.898 -27.877,-0.663 -41.487,-0.665 -7.226,-0.001 -14.452,-0.002 -21.678,-0.003 -7.088,-0.001 -14.659,-0.706 -21.672,0.316 -0.104,0.015 -0.195,0.059 -0.288,0.099 -1.266,0.304 -2.476,1.184 -3.208,2.138 -0.675,0.88 -1.525,2.603 -1.049,3.765 -1.15,5.569 -0.384,11.829 -0.375,17.501 0.009,6.349 0.022,12.697 0.026,19.046 0.004,6.047 0.007,12.093 0.011,18.14 0.004,6.341 -0.49,12.962 0.201,19.279 -0.368,0.964 0.186,2.407 0.63,3.155 0.131,0.221 0.289,0.448 0.464,0.667 -0.981,0.029 -1.96,0.067 -2.934,0.124 -0.033,-0.634 -0.073,-1.266 -0.125,-1.894 0.842,-5.424 0.384,-11.263 0.388,-16.703 0.005,-6.865 0.004,-13.73 0.007,-20.595 0.002,-6.566 -0.002,-13.133 -0.012,-19.699 -0.01,-6.266 0.601,-12.869 -0.448,-19.057 -0.068,-0.403 -0.391,-0.614 -0.751,-0.665 -1.451,-1.804 -4.878,-1.855 -6.075,0.248 -0.161,0.283 -0.15,0.557 -0.048,0.789 -0.013,0.037 -0.036,0.067 -0.043,0.108 -1.132,6.213 -0.479,12.919 -0.478,19.215 0.001,6.919 0.001,13.838 0.002,20.757 0.001,6.618 0.001,13.236 0.002,19.855 0,4.779 -0.429,9.93 -0.096,14.854 -0.242,4.015 -3.09,5.353 -6.68,5.803 -0.018,-0.047 -0.021,-0.092 -0.046,-0.139 -3.073,-5.852 -13.2,-6.66 -19.937,-6.501 2.667,-4.101 3.976,-9.483 1.635,-13.798 0.447,-0.142 0.776,-0.518 0.691,-1.148 -0.176,-1.298 -0.266,-2.578 -0.378,-3.873 2.723,-0.355 5.099,-2.299 6.192,-4.889 1.719,-4.076 -0.25,-9.03 -1.304,-13.023 -3.004,-11.377 -6.838,-22.532 -11.986,-33.125 -8.528,-17.548 -22.503,-37.392 -40.948,-45.74 2.807,0.112 5.659,-0.219 8.447,-1.035 0.883,-0.258 1.118,-1.626 0.23,-2.053 -0.828,-0.296 -1.527,-0.727 -2.107,-1.286 4.003,0.523 7.676,1.658 11.397,3.511 0.895,0.446 2.044,-0.342 1.72,-1.372 -0.901,-2.863 -2.318,-5.259 -4.361,-7.295 3.471,-1.039 6.556,-2.967 8.67,-6.033 0.101,-0.147 0.113,-0.31 0.073,-0.464 -0.009,-0.413 -0.386,-0.848 -0.863,-0.692 -3.024,0.991 -6.379,1.214 -9.527,0.765 -2.24,-0.319 -4.155,-1.21 -6.144,-2.043 4.645,-3.645 8.407,-8.403 10.68,-13.899 5.173,-12.512 2.695,-27.295 -6.302,-37.394 -8.986,-10.086 -22.992,-14.86 -36.271,-14.624 -16.222,0.287 -31.449,8.316 -39.993,22.215 -0.071,0.115 -0.12,0.229 -0.156,0.341 -5.522,0.591 -11.05,2.446 -16.267,4.158 -0.868,0.285 -0.47,1.483 0.393,1.332 0.04,-0.007 0.081,-0.013 0.121,-0.02 3.867,1.533 7.864,2.786 11.9,3.934 -3.764,1.6 -6.909,4.886 -8.548,8.528 -0.394,0.876 0.485,1.906 1.4,1.35 1.974,-1.201 4.016,-2.314 6.07,-3.389 -1.334,4.983 2.508,9.996 7.769,10.026 0.634,4.682 1.733,9.337 3.091,13.58 -5.958,3.31 -7.42,9.521 -3.166,15.006 3.061,3.946 6.485,7.78 9.859,11.461 2.214,2.415 4.627,4.318 7.894,3.448 0.247,0.204 0.587,0.311 1.002,0.221 0.189,-0.041 0.376,-0.097 0.564,-0.142 5.823,0.048 11.593,-1.602 16.833,-4.37 0.985,0.618 1.939,1.368 2.732,2.178 0.784,0.801 1.149,1.956 1.833,2.792 -0.658,0.887 -1.285,1.785 -1.856,2.701 -0.021,0.026 -0.039,0.054 -0.056,0.085 -0.031,0.049 -0.066,0.098 -0.096,0.147 -0.105,0.172 -0.102,0.36 -0.043,0.532 -0.48,3.448 0.183,6.743 1.419,10.003 0.354,0.935 1.47,1.269 2.22,0.543 0.783,-0.758 1.564,-1.531 2.343,-2.314 0.512,8.276 1.764,16.585 3.097,24.805 -8.929,0.721 -18.615,0.697 -27.293,2.945 0.104,-0.836 0.117,-1.68 0.16,-2.55 0.032,-0.648 -0.649,-1.005 -1.203,-0.882 -3.712,0.82 -7.637,1.232 -11.207,2.619 l -0.023,-0.047 c -0.072,-0.17 -0.215,-0.288 -0.373,-0.342 -2.539,-3.524 -8.276,-4.766 -12.385,-4.102 -0.25,-0.183 -0.509,-0.355 -0.773,-0.515 1.243,-4.851 2.455,-9.763 3.522,-14.651 0.422,0.026 0.871,-0.007 1.356,-0.127 0.418,1.059 1.606,2.053 2.383,2.484 0.693,0.385 1.51,0.668 2.312,0.576 0.198,0.085 0.44,0.094 0.723,-0.023 2.746,-1.135 3.343,-3.88 3.829,-6.598 0.633,-3.543 1.185,-7.363 0.743,-10.969 0.105,-0.133 0.179,-0.298 0.198,-0.476 0.227,-2.042 -2.769,-3.194 -4.495,-2.394 -0.257,-0.824 -0.586,-1.626 -1.022,-2.385 -0.037,-0.064 -0.086,-0.112 -0.137,-0.159 -0.044,-0.147 -0.136,-0.278 -0.297,-0.357 -6.101,-2.961 -9.363,5.938 -10.193,10.317 -0.062,0.329 -0.101,0.689 -0.13,1.06 -0.314,0.008 -0.632,0.104 -1.006,0.221 -0.784,0.245 -1.585,0.498 -2.349,0.798 -0.399,0.157 -1.256,0.519 -1.664,1.005 -0.305,-0.057 -0.623,0.08 -0.723,0.498 -1.112,4.668 -0.886,9.783 -0.987,14.565 -0.035,1.645 -0.11,3.315 -0.163,4.99 -11.969,-0.102 -23.665,3.167 -34.004,9.14 -0.326,0.188 -0.275,0.635 -0.049,0.853 0.031,0.137 0.111,0.259 0.264,0.323 1.544,0.648 3.184,0.641 4.84,0.777 0.275,0.023 0.55,0.042 0.826,0.065 -3.706,7.247 -3.81,18.649 4.793,22.178 0.049,0.02 0.097,0.031 0.146,0.044 0.42,0.624 0.918,1.197 1.534,1.678 0.983,0.767 2.123,1.158 3.339,1.362 0.618,0.104 8.539,0.146 5.786,2.951 -0.333,0.34 -0.417,0.716 -0.346,1.055 -9.103,2.919 -18.008,7.6 -25.657,12.42 -9.424,5.939 -18.113,13.253 -25.47,21.664 -2.983,1.217 -5.574,3.584 -8.049,5.583 -3.163,2.555 -6.632,5.22 -9.074,8.493 -0.038,0.051 -0.055,0.109 -0.082,0.165 -0.029,0.038 -0.066,0.066 -0.088,0.111 -2.111,4.117 -2.966,9.757 -0.89,14.055 2.296,4.753 6.474,4.632 10.922,6.164 0.193,0.066 0.374,0.049 0.544,-0.003 1.547,1.367 3.414,2.402 5.549,2.981 0.238,0.369 0.482,0.735 0.721,1.103 -12.248,-3.472 -29.333,3.798 -34.111,15.363 -2.053,4.969 1.051,7.634 4.911,9.442 -8.705,4.986 -12.231,16.251 -12.779,25.709 -0.669,11.547 1.589,23.856 9.756,32.495 15.318,16.203 45.129,19.4 62.697,5.257 7.645,-6.155 13.46,-16.413 12.622,-26.425 2.404,3.227 4.867,6.397 7.425,9.468 0.051,0.061 0.106,0.112 0.162,0.158 -0.058,0.755 0.391,1.502 1.357,1.39 15.671,-1.824 31.332,-4.062 46.951,-6.67 14.523,1.723 29.544,0.88 44.153,0.938 8.414,0.033 16.839,0.145 25.262,0.151 1.332,27.15 42.392,33.718 61.903,24.029 11.402,-5.662 17.679,-16.485 18.96,-28.931 1.045,-10.155 -0.241,-25.111 -10.413,-30.412 0.004,-0.067 0.016,-0.135 0.01,-0.2 6.034,-1.98 12.044,-4.019 18.022,-6.13 0.902,-0.318 1.113,-1.214 0.863,-1.913 2.342,-10.288 -2.223,-20.169 -9.648,-27.098 1.55,-2.635 -0.163,-7.166 -1.856,-9.25 -2.152,-2.649 -5.974,-4.463 -9.402,-3.744 -0.451,-0.803 -1.128,-1.419 -2.149,-1.691 -2.805,-0.747 -6.324,-0.244 -9.216,-0.349 -3.462,-0.125 -6.933,-0.371 -10.398,-0.34 -1.659,-0.387 -3.319,-0.743 -4.97,-1.062 0.177,-1.634 -0.035,-3.227 -0.596,-4.734 3.588,-0.043 7.173,-0.279 10.431,-2.256 14.88,0.215 29.779,0.017 44.658,0.02 7.852,0.002 15.704,0.003 23.556,0.005 8.289,0.002 17.161,0.874 25.362,-0.324 0.236,-0.035 0.439,-0.157 0.6,-0.32 0.101,-0.052 0.199,-0.126 0.288,-0.227 1.223,-1.389 1.671,-4.201 0.662,-5.817 -0.09,-0.144 -0.202,-0.246 -0.323,-0.328 -0.108,-0.234 -0.295,-0.426 -0.575,-0.48 -0.654,-0.127 -1.317,-0.229 -1.983,-0.321 1.315,-1.235 2.079,-3.35 1.765,-5.064 1.346,-8.757 0.509,-18.265 0.535,-27.087 0.014,-4.756 0.013,-9.512 0.003,-14.267 -0.008,-3.67 0.345,-7.585 -0.163,-11.274 1.245,0.137 2.434,-0.508 3.363,-1.804 1.007,-1.404 1.316,-3.309 1.346,-5.279 4.535,-2.092 4.018,-11.458 -1.435,-11.99 z m -101.477,-0.809 c 0.683,0.08 1.016,0.479 1.519,0.884 0.047,0.038 0.102,0.056 0.153,0.086 -0.71,5.491 -0.237,11.282 -0.246,16.786 -0.011,6.865 -0.016,13.73 -0.013,20.595 0.002,6.566 0.004,13.133 0.006,19.699 0.002,5.204 -0.411,10.734 0.179,15.981 -0.083,1.207 -0.147,2.416 -0.168,3.636 -0.839,0.073 -1.675,0.155 -2.505,0.262 0.847,-5.585 0.246,-11.661 0.247,-17.227 0.001,-6.919 0.001,-13.838 0.002,-20.757 0,-6.618 10e-4,-13.236 0.002,-19.855 0,-6.519 0.672,-13.471 -0.46,-19.911 0.413,-0.148 0.862,-0.229 1.284,-0.179 z m -22.307,77.212 c 3.605,0.512 6.188,1.551 8.95,3.5 -3.786,0.103 -7.818,-0.2 -10.327,0.784 -3.809,1.494 -7.368,4.773 -8.329,8.838 -3.32,0.214 -6.632,0.624 -9.895,1.238 -10.003,-1.198 -20.166,-1.411 -30.218,-1.977 -6.992,-0.394 -14.084,-1.144 -21.15,-1.53 2.781,-0.328 5.564,-0.646 8.349,-0.936 10.365,-1.079 20.766,-1.298 31.132,-2.214 7.542,-0.667 15.472,-2.524 21.005,-8.06 0.333,-0.333 0.655,-0.694 0.97,-1.066 3.116,0.745 6.344,0.973 9.513,1.423 z m -64.228,85.511 c -4.79,1.122 -9.597,2.167 -14.42,3.135 0.041,-0.131 0.065,-0.272 0.058,-0.429 -0.135,-3.014 -1.889,-6.503 -4.485,-8.225 0.041,-0.129 0.077,-0.257 0.099,-0.375 0.178,-0.971 -0.021,-1.955 -0.603,-2.76 -0.675,-0.935 -2.042,-1.615 -3.259,-1.507 -0.007,-0.057 -0.008,-0.114 -0.017,-0.171 1.745,-0.42 3.444,-0.924 5.051,-1.523 0.686,-0.256 0.946,-0.817 0.887,-1.345 0.215,-0.314 0.326,-0.711 0.245,-1.17 -0.64,-3.637 -1.316,-7.266 -2.012,-10.892 5.456,-6.784 8.852,-17.835 8.365,-26.205 -0.49,-8.425 -6.213,-14.432 -10.027,-21.512 1.292,-0.17 2.584,-0.336 3.876,-0.502 9.449,1.786 19.337,2.092 28.885,2.847 7.871,0.623 15.84,1.33 23.78,1.515 -14.11,4.364 -26.505,13.054 -33.383,27.096 -6.067,12.387 -7.584,28.757 -3.04,42.023 z m -62.725,11.111 c -8.54,-21.645 -16.988,-43.305 -25.079,-65.123 0.161,-0.069 0.299,-0.199 0.37,-0.405 7.934,-22.885 17.889,-44.913 26.855,-67.372 0.969,0.965 1.48,2.398 1.174,4.396 -0.195,1.274 -0.66,2.506 -1.071,3.72 -1.358,4.015 -2.901,7.98 -4.349,11.963 -5.796,15.941 -11.768,31.841 -17.295,47.877 -0.014,0.041 -0.018,0.078 -0.028,0.117 -0.148,0.148 -0.241,0.344 -0.209,0.588 0.814,6.323 3.5,12.627 5.553,18.641 2.258,6.617 4.626,13.199 7.072,19.749 2.445,6.55 4.961,13.078 7.605,19.55 0.93,2.275 1.876,4.781 3.722,6.118 -1.453,0.156 -2.91,0.319 -4.331,0.657 0.067,-0.13 0.085,-0.289 0.011,-0.476 z m 65.708,-147.92 c 4.556,0.05 9.093,0.097 13.579,0.235 5.065,0.156 10.898,0.585 14.993,-3.026 2.9,-2.557 3.827,-6.545 1.91,-9.736 0.333,-0.114 0.655,-0.238 0.976,-0.364 3.889,13.583 7.43,27.033 9.417,41.034 -0.858,0.037 -1.711,0.068 -2.551,0.096 -7.197,0.24 -14.407,-0.266 -21.508,-1.455 -3.336,-0.559 -6.643,-1.287 -9.912,-2.154 -1.325,-0.351 -3.542,-0.623 -4.56,-1.512 -2.184,-1.906 -1.932,-4.916 -1.553,-7.359 0.797,-5.133 0.853,-10.758 -0.791,-15.759 z m 3.822,-20.292 c 8.319,2.38 17.455,3.159 26.092,2.749 0.095,0.788 0.188,1.576 0.275,2.366 -4.196,0.464 -8.225,1.229 -12.523,0.939 -4.82,-0.325 -9.164,-1.807 -13.777,-2.87 0.025,-0.088 0.053,-0.174 0.053,-0.275 -0.003,-0.711 -0.05,-1.704 -0.12,-2.909 z m 49.2,53.678 c 0.006,0.015 0.015,0.027 0.021,0.041 -0.091,0.126 -0.146,0.284 -0.131,0.478 0.672,8.413 -1.928,14.933 -9.937,18.855 -7.635,3.74 -16.5,3.429 -24.775,3.891 -16.996,0.948 -33.878,3.202 -50.739,5.464 -1.469,0.197 -1.758,2.068 -0.898,2.737 0.224,0.695 0.378,1.462 0.401,2.11 0.013,0.377 -0.036,0.756 -0.09,1.134 -0.154,0.127 -0.254,0.321 -0.226,0.605 0.031,0.303 0.08,0.605 0.115,0.908 0.003,0.053 -0.004,0.107 0.002,0.159 0.004,0.032 0.022,0.054 0.029,0.084 1.015,8.522 3.628,16.981 5.419,25.354 1.525,7.127 2.937,14.278 4.261,21.445 -1.242,0.225 -2.481,0.464 -3.719,0.709 -2.154,-8.475 -4.758,-16.852 -6.437,-25.47 -2.133,-10.952 -2.856,-22.069 -4.742,-33.026 17.405,-3.977 35.227,-6.698 52.755,-10.164 10.425,-2.061 26.923,-4.225 27.811,-17.706 3.587,-0.189 7.263,-0.567 10.655,-1.648 -0.347,1.32 -0.262,2.82 0.225,4.04 z m -77.792,61.858 c -1.861,-8.519 -3.368,-17.605 -6.612,-25.753 0.507,-0.79 0.663,-1.873 0.601,-2.744 -0.049,-0.689 -0.197,-1.294 -0.446,-1.838 0.556,-0.074 1.112,-0.148 1.668,-0.222 0.059,6.527 2.043,13.548 3.315,19.81 1.35,6.642 2.12,14.379 4.98,20.589 -0.353,0.684 -0.701,1.369 -1.032,2.059 -0.79,-3.974 -1.609,-7.942 -2.474,-11.901 z m 2.336,27.42 c -1.142,0.208 -2.274,0.396 -3.403,0.576 -0.349,-1.594 -0.731,-3.181 -1.125,-4.765 1.205,-0.287 2.407,-0.587 3.603,-0.905 0.312,1.698 0.623,3.395 0.925,5.094 z m -1.199,-38.04 c -1.337,-6.493 -1.978,-13.823 -4.13,-20.176 0.863,-0.115 1.725,-0.23 2.588,-0.345 1.365,6.778 7.959,12.032 9.008,19.188 0.743,5.066 -0.155,10.127 -1.867,14.918 -0.472,1.32 -1.06,2.599 -1.688,3.865 -0.686,-5.829 -2.75,-11.813 -3.911,-17.45 z m -12.39,43.604 c -0.031,-0.117 -0.069,-0.245 -0.11,-0.375 2.551,-0.059 5.128,-0.326 7.641,-0.773 -0.391,1.219 -0.7,2.386 -2.064,3.247 -1.593,1.005 -3.52,0.824 -5.285,0.425 0.093,-0.845 0.036,-1.7 -0.182,-2.524 z m -7.624,-3.051 c -0.167,-1.112 -0.414,-2.221 -0.697,-3.329 5.251,-0.865 10.519,-1.799 15.718,-2.98 0.506,1.54 1.037,3.064 1.622,4.553 -5.526,0.836 -10.962,1.366 -16.643,1.756 z m 78.367,-83.891 c -0.022,-0.048 -0.044,-0.096 -0.074,-0.144 -1.341,-2.083 -2.849,-4.014 -4.069,-6.182 -0.704,-1.25 -1.263,-2.65 -1.967,-3.933 3.251,0.187 6.511,0.231 9.767,0.12 0.95,-0.032 1.919,-0.068 2.894,-0.113 -0.321,4.655 -2.987,7.946 -6.551,10.252 z m -22.719,-12.509 c 0.572,0.105 1.118,0.206 1.613,0.307 4.213,0.861 8.478,1.454 12.764,1.792 0.27,1.876 1.239,3.752 2.081,5.375 1.138,2.193 2.532,4.415 4.281,6.18 -2.115,1.082 -4.424,1.885 -6.693,2.466 -6.918,1.772 -14.065,2.844 -21.069,4.219 -14.591,2.864 -29.17,6.404 -43.828,8.816 -0.373,0.061 -0.422,0.444 -0.269,0.712 -0.034,0.053 -0.06,0.112 -0.06,0.184 -0.051,10.771 2.194,21.992 4.21,32.549 1.643,8.605 3.286,17.773 5.978,26.331 -1.855,0.375 -3.708,0.755 -5.564,1.114 -1.085,0.21 -7.322,1.904 -10.101,1.868 -1.018,-3.606 -2.418,-7.192 -3.328,-10.746 -1.477,-5.771 -2.678,-11.608 -3.723,-17.471 -1.114,-6.246 -2.042,-12.523 -2.936,-18.804 -0.087,-4.882 -1.509,-9.731 -0.788,-14.219 0.417,-1.716 1.166,-3.321 2.439,-4.714 3.385,-3.703 9.087,-5.682 13.551,-7.724 5.771,-2.64 11.632,-5.081 17.568,-7.324 11.128,-4.207 22.593,-7.214 33.874,-10.911 z m -56.423,102.28 c -0.004,0.007 -0.006,0.015 -0.01,0.022 0.009,0.692 0.198,1.36 0.624,1.793 -1.761,1.181 -3.511,2.333 -5.498,3.132 -2.748,1.106 -5.437,1.145 -8.325,1.434 -1.052,0.105 -2.111,0.282 -3.081,0.608 -0.949,0.055 -2.073,0.57 -2.572,0.95 -0.148,-0.422 -0.291,-0.824 -0.434,-1.195 4.194,-2.822 9.285,-2.955 14.066,-4.432 1.568,-0.484 3.887,-1.074 5.23,-2.312 z m -17.768,10.876 c 6.974,-3.138 15.528,-1.26 20.342,-8.695 0.076,-0.117 0.097,-0.239 0.094,-0.358 0.104,-0.225 0.111,-0.495 -0.034,-0.742 -0.22,-0.375 -0.593,-0.692 -0.62,-1.153 -0.037,-0.625 0.484,-1.044 1.009,-1.256 1.137,-0.458 2.282,-0.009 3.435,0.109 0.029,0.764 0.035,2.245 1.031,2.148 1.984,2.17 5.373,2.185 7.816,0.705 1.271,-0.77 2.627,-2.3 3.232,-3.941 0.694,0.005 1.381,0.059 1.804,0.75 0.574,0.939 -0.233,1.846 0.097,2.751 0.106,0.292 0.331,0.443 0.631,0.469 0.728,0.965 1.472,1.902 2.054,2.976 0.733,1.353 1.02,2.738 1.377,4.217 0.046,0.191 0.127,0.348 0.231,0.477 -3.55,0.693 -7.107,1.355 -10.675,1.954 -9.212,1.548 -18.958,1.86 -28.035,4.001 -1.827,-0.661 -2.956,-2.468 -3.789,-4.412 z M 289.018,221.84 c 4.845,8.586 8.633,17.707 11.756,27.048 1.496,4.473 2.829,9 4.033,13.561 0.549,2.081 1.194,4.191 1.567,6.312 0.554,3.157 -0.24,5.414 -2.149,6.975 -4.542,1.95 -9.699,2.513 -14.689,2.765 -2.204,-13.892 -5.123,-27.898 -9.899,-41.141 0.483,-0.134 0.865,-0.53 0.812,-1.202 -0.841,-10.639 -2.853,-21.221 -5.844,-31.462 -0.445,-1.524 -0.965,-3.128 -1.582,-4.712 6.268,6.537 11.549,13.977 15.995,21.856 z m -25.463,-29.937 c 0.802,0.383 1.526,0.865 2.196,1.411 0.115,0.094 0.226,0.194 0.341,0.288 4.872,4.3 6.301,12.636 7.732,18.467 1.6,6.521 2.707,13.112 3.535,19.759 -8.896,0.162 -17.249,-0.818 -26.01,-2.47 -0.768,-12.666 -3.342,-44.879 12.206,-37.455 z m 10.507,-23.046 c -2.077,1.263 -4.273,2.186 -6.87,2.653 -0.844,0.152 -1.136,1.449 -0.483,1.975 1.854,1.493 3.252,3.158 4.273,5.148 -3.873,-1.527 -7.863,-2.433 -12.093,-2.739 -0.908,-0.066 -1.325,1.033 -0.947,1.723 0.577,1.051 1.223,1.881 2.015,2.574 -6.086,1.135 -12.023,-0.407 -17.147,-3.96 -0.107,-0.106 -0.235,-0.196 -0.376,-0.261 -0.043,-0.031 -0.088,-0.059 -0.131,-0.091 1.034,-1.217 1.995,-2.476 2.867,-3.77 5.222,-0.74 10.231,-2.705 14.614,-5.606 3.766,3.286 9.405,3.581 14.278,2.354 z m -96.274,-42.513 c 4.798,-0.703 9.701,-1.272 14.318,-2.568 0.68,-0.191 0.95,-0.832 0.872,-1.419 8.785,-13.809 24.403,-21.175 40.656,-20.429 14.606,0.67 30.018,8.058 36.151,21.985 6.41,14.556 1.266,31.919 -12.155,40.46 -4.536,2.887 -18.923,9.714 -21.565,1.603 -1.208,-3.709 -0.849,-8.528 -1.225,-12.419 -0.351,-3.631 -0.726,-7.253 -1.288,-10.856 0.48,-0.74 0.331,-1.923 -0.781,-2.237 -9.691,-2.74 -19.468,-5.229 -29.23,-7.699 -8.506,-2.154 -17.081,-4.86 -25.753,-6.421 z m 57.095,43.496 c -1.627,2.469 -3.375,4.714 -5.257,6.761 -1.199,-2.94 -2.12,-6.229 -1.504,-9.302 0.534,-2.664 2.428,-3.9 4.467,-5.149 0.184,1.35 0.391,2.687 0.642,3.995 0.302,1.574 0.878,2.777 1.652,3.695 z m -42.44,-35.027 c 0.055,0.058 0.112,0.112 0.167,0.169 -0.048,0.085 -0.085,0.177 -0.093,0.281 -0.249,3.145 -0.166,6.445 0.171,9.765 -4.504,-0.348 -7.275,-4.629 -4.991,-9.175 0.391,-0.778 -0.434,-1.568 -1.197,-1.154 -1.695,0.921 -3.406,1.83 -5.136,2.698 2.049,-2.594 4.623,-4.281 7.842,-5.763 4.286,1.167 8.593,2.256 12.821,3.452 7.507,2.123 15.027,4.237 22.572,6.237 -3.9,0.198 -7.695,-0.248 -11.721,-1.574 -0.752,-0.248 -1.503,0.741 -1.031,1.393 0.604,0.836 1.23,1.638 1.889,2.411 -7.601,-1.298 -14.571,-4.41 -20.529,-9.53 -0.537,-0.462 -1.254,0.274 -0.764,0.79 z m 1.653,1.634 c 6.272,5.886 14.203,9.479 22.917,9.956 1.228,0.067 1.563,-1.7 0.567,-2.256 -0.922,-0.516 -1.697,-1.064 -2.378,-1.718 4.823,1.288 9.908,1.499 14.767,0.291 0.487,0.125 0.972,0.256 1.459,0.38 0.042,4.41 0.175,9.005 0.552,13.532 -2.388,0.689 -4.561,2.044 -6.901,2.919 -3.287,1.23 -6.736,2.086 -10.225,2.47 -3.019,0.332 -6.146,0.4 -9.158,0.014 -2.517,-0.322 -4.932,-1.286 -7.439,-1.514 -1.763,-8.029 -2.828,-16.002 -4.161,-24.074 z m 17.05,52.356 c -0.144,-0.084 -0.303,-0.149 -0.494,-0.163 -5.763,-0.439 -10.217,-8.027 -13.648,-12.074 -2.468,-2.911 -4.938,-5.479 -3.41,-9.617 0.646,-1.751 2.508,-3.282 3.781,-4.821 0.192,-0.03 0.376,-0.111 0.533,-0.229 4.554,3.299 12.544,3.194 17.711,2.576 5.057,-0.605 12.307,-2.022 16.573,-5.592 0.058,0.557 0.135,1.104 0.201,1.658 -2.628,0.997 -5.119,2.815 -6.014,5.527 -1.236,3.744 0.19,8.495 1.712,12.123 -4.692,4.643 -10.222,8.133 -16.945,10.612 z m 10.324,-1.631 c 6.414,-3.73 11.781,-9.46 14.769,-16.135 1.571,1.029 3.591,1.375 5.781,1.344 -5.354,7.445 -12.377,12.092 -20.55,14.791 z m 11.804,-0.259 c -0.356,-0.341 -0.727,-0.631 -1.115,-0.876 1.758,-0.992 3.312,-2.427 4.872,-3.685 1.603,-1.293 3.189,-2.606 4.779,-3.915 0.753,0.538 1.521,1.043 2.317,1.482 -2.956,3.003 -6.136,6.154 -8.894,9.506 -0.492,-0.982 -1.331,-1.909 -1.959,-2.512 z m 1.424,15.349 c -0.865,-2.365 -1.266,-4.738 -1.624,-7.292 4.982,-3.815 9.313,-9.189 13.385,-13.936 1.774,0.73 3.627,1.215 5.517,1.497 -5.59,6.854 -11.06,13.446 -17.278,19.731 z m 4.331,-0.592 c 5.249,-5.424 10.28,-11.387 14.342,-17.641 1.98,1.438 3.95,2.858 5.898,4.292 -6.862,0.327 -9.857,7.472 -10.577,13.648 -1.165,9.993 -1.616,21.537 0.769,31.375 0.012,0.05 0.04,0.081 0.058,0.126 -0.011,0.03 -0.015,0.061 -0.022,0.092 -1.696,-0.111 -3.433,-0.099 -5.177,-0.035 -1.4,-10.607 -2.736,-21.46 -5.291,-31.857 z m 13.83,34.321 c 6.523,3.299 15.636,4.243 22.813,2.566 1.915,3.93 -0.939,7.696 -4.887,8.778 -2.559,0.701 -5.259,0.59 -7.885,0.527 -5.406,-0.13 -10.812,-0.331 -16.217,-0.497 -10.364,-0.317 -21.033,-1.227 -31.395,-0.515 0.018,-3.342 -0.03,-6.683 -0.117,-10.025 6.414,0.565 12.988,0.144 19.411,-0.009 5.882,-0.139 12.532,0.531 18.277,-0.825 z m -12.482,-5.542 c -0.145,1.044 -0.397,2.306 -0.177,3.304 -2.229,0.152 -4.432,0.321 -6.544,0.383 -6.152,0.182 -12.425,0.152 -18.535,1 -0.027,-0.891 -0.051,-1.782 -0.081,-2.674 0,-0.004 -0.002,-0.009 -0.002,-0.013 8.304,0.367 17.103,-1.171 25.339,-2 z m -26.518,22.082 c 0.776,0.066 1.356,-0.732 1.373,-1.424 0.019,-0.781 0.027,-1.562 0.038,-2.343 9.91,1.308 20.118,1.507 30.259,1.624 0.274,4.058 0.78,8.034 0.433,12.132 -0.271,3.202 -1.901,7.215 -0.316,10.314 1.431,2.798 4.856,4.263 8.379,5.189 -0.005,0.045 -0.003,0.09 0.01,0.133 -11.323,2.349 -22.434,6.362 -33.131,10.571 -5.886,2.316 -11.696,4.829 -17.417,7.525 -3.775,1.779 -8.009,3.543 -10.936,6.646 -3.71,3.262 -3.932,9.133 -3.182,14.825 0.068,1.234 0.151,2.467 0.244,3.701 0.782,5.759 1.635,11.514 2.576,17.248 1.056,6.442 2.259,12.862 3.767,19.214 0.999,4.206 1.898,9.079 3.472,13.449 0.311,1.799 0.62,3.663 1.316,5.279 0.399,0.926 1.096,1.74 1.898,2.224 -3.042,3.058 -9.926,3.523 -13.807,4.346 -2.248,0.477 -4.5,1.096 -5.846,2.799 -0.056,-0.188 -0.128,-0.37 -0.173,-0.561 -0.016,0.004 -0.032,0.008 -0.047,0.013 -0.731,-1.851 -1.465,-3.702 -2.181,-5.558 -1.993,-5.165 -3.93,-10.351 -5.812,-15.557 -1.882,-5.206 -3.698,-10.436 -5.488,-15.674 -1.597,-4.676 -2.842,-9.691 -5.022,-14.149 0.174,-0.127 0.321,-0.306 0.413,-0.545 6.2,-16.124 11.964,-32.432 17.893,-48.658 1.423,-3.896 2.952,-7.772 4.267,-11.705 0.779,-2.331 1.526,-5.022 0.86,-7.487 -0.402,-1.49 -1.19,-2.574 -2.204,-3.345 2.487,-1.541 4.314,-4.393 5.833,-6.819 1.521,-2.429 2.881,-5.168 3.326,-8.027 1.136,0.186 2.277,0.154 3.275,-0.177 0.06,0.302 0.233,0.583 0.558,0.763 4.667,2.585 10.107,3.584 15.372,4.034 z m -19.362,-24.054 c 1.862,0.714 3.463,1.918 5.206,2.801 -0.023,0.495 0.458,0.979 0.951,0.947 3.735,-0.242 7.334,-1.536 10.92,-2.561 -0.022,0.548 -0.029,1.087 0.014,1.63 -4.045,0.478 -8.257,1.16 -11.922,2.872 -2.008,-1.499 -4.408,-2.623 -6.944,-3.292 -0.191,-1.195 -1.395,-2.495 -2.315,-3.392 1.397,0.2 2.78,0.493 4.09,0.995 z m -6.214,0.363 c 0.44,0.455 0.829,0.949 1.197,1.46 -1.543,-0.161 -3.096,-0.171 -4.607,0.03 0.093,-1.319 0.173,-2.679 0.245,-4.052 1.067,0.835 2.213,1.576 3.165,2.562 z m 10.038,-27.219 c 0.417,-2.041 0.56,-4.2 0.294,-6.287 0.156,-0.033 0.31,-0.071 0.456,-0.107 0.714,-0.177 1.252,0.075 1.8,0.403 -0.705,4.599 0.035,12.149 -3.507,15.462 -0.549,-0.24 -1.185,-0.395 -1.618,-0.713 -0.361,-0.265 -0.641,-0.649 -0.93,-1.018 1.997,-1.897 2.997,-5.252 3.505,-7.74 z m -8.591,-3.531 c 1.042,-3.56 2.673,-5.363 5.982,-6.542 0.358,3.197 0.78,6.193 0.074,9.424 -0.556,2.546 -2.238,4.642 -3.133,6.947 -5.042,-0.606 -3.978,-6.224 -2.923,-9.829 z m -0.055,12.028 c -1.684,4.545 -2.942,9.467 -3.732,14.272 -0.239,-0.078 -0.48,-0.147 -0.727,-0.194 0.001,-0.017 0.001,-0.035 0.002,-0.052 0.118,-0.069 0.219,-0.181 0.274,-0.344 0.965,-2.805 1.147,-5.897 1.758,-8.801 0.398,-1.889 0.975,-3.754 1.353,-5.648 0.321,0.317 0.679,0.574 1.072,0.767 z m -2.203,-2.369 c -1.046,2.321 -1.519,4.928 -2.047,7.4 -0.04,0.187 -0.081,0.376 -0.122,0.564 -0.073,-2.975 -0.273,-5.911 -0.659,-8.692 0.788,-0.062 1.568,-0.242 2.335,-0.435 0.141,0.407 0.307,0.796 0.493,1.163 z m -5.456,11.624 c 0.084,-4.747 0.617,-9.767 0.03,-14.497 0.752,0.121 1.72,-0.215 2.324,-0.394 0.586,-0.174 1.359,-0.297 2.015,-0.563 0.04,0.346 0.098,0.693 0.165,1.038 -0.847,0.211 -1.694,0.442 -2.479,0.816 -0.257,-0.027 -0.532,0.088 -0.619,0.336 -0.015,0.009 -0.031,0.016 -0.046,0.025 -0.303,0.192 -0.276,0.54 -0.073,0.743 -1.086,7.525 -0.802,16.231 -0.274,23.789 -0.406,0.099 -0.808,0.211 -1.203,0.341 0.338,-3.845 0.092,-7.797 0.16,-11.634 z m 16.153,16.826 c 0.472,0.369 1.011,0.351 1.44,0.135 4.243,-0.354 8.451,-1.515 12.67,-2.211 0.28,5.148 0.31,10.301 0.188,15.455 -4.444,-0.568 -8.537,-1.889 -12.832,-3.205 0.145,-0.671 -0.28,-1.409 -1.127,-1.428 -1.513,-0.035 -2.873,0.394 -4.417,0.136 -1.239,-0.206 -2.324,-0.719 -3.432,-1.245 0.661,-1.397 0.756,-3.053 -0.002,-4.459 -0.977,-1.813 -4.009,-3.456 -5.971,-2.429 -2.236,0.383 -3.956,3.275 -3.675,5.427 0.403,3.086 3.836,5.249 6.776,4.179 0.45,-0.164 0.863,-0.4 1.24,-0.684 -0.983,0.805 -1.786,1.979 -2.868,2.641 -1.274,0.781 -2.857,1.28 -4.381,1.618 -1.411,-1.79 -3.145,-3.182 -4.252,-5.249 -1.086,-2.03 -1.611,-4.31 -2.08,-6.555 7.098,-5.518 14.755,-8.345 22.723,-2.126 z m -10.863,7.837 c -1.544,0.902 -3.727,-0.389 -3.908,-2.119 -0.154,-1.469 0.785,-2.251 1.821,-2.92 1.044,0.046 2.073,0.094 2.867,0.954 1.137,1.233 0.616,3.27 -0.78,4.085 z m -8.152,11.621 c 0.148,0.313 0.437,0.474 0.617,0.766 0.163,0.264 0.309,0.639 0.355,0.949 0.1,0.664 -0.272,1.22 -0.882,1.457 -1.305,0.508 -2.255,-0.878 -2.046,-2.077 0.264,-0.161 0.468,-0.427 0.479,-0.825 0.129,-4.386 -4.82,-6.079 -5.729,-10.025 0.35,-0.686 0.85,-1.34 1.339,-1.889 0.233,-0.262 0.502,-0.466 0.778,-0.659 0.428,1.682 1.157,3.332 2.131,4.753 0.314,0.916 0.707,1.816 1.02,2.68 0.557,1.54 1.084,3.081 1.887,4.5 -0.014,0.126 -0.004,0.255 0.051,0.37 z m -24.612,-4.002 c 0.06,0.597 0.156,1.197 0.289,1.789 -5.667,-4.502 -3.089,-12.128 -1.805,-18.642 0.986,0.08 1.972,0.165 2.96,0.233 -1.405,5.46 -1.971,11.367 -1.444,16.62 z m 2.049,-18.773 c -1.908,-0.108 -3.817,-0.172 -5.726,-0.246 -0.809,-0.032 -1.625,-0.102 -2.438,-0.118 3.087,-1.23 6.216,-2.251 9.377,-3.113 -0.442,1.121 -0.848,2.283 -1.213,3.477 z m 7.539,24.476 c -1.892,-0.333 -4.637,-0.97 -5.982,-2.537 -0.831,-0.967 -0.916,-3.291 -1.014,-4.576 -0.158,-2.066 0.02,-4.218 0.163,-6.281 0.356,-5.107 1.458,-10.044 2.352,-15.061 6.421,-1.603 12.996,-2.481 19.734,-2.702 -0.016,1.929 0.035,3.852 0.253,5.741 -2.218,1.158 -4.139,2.904 -5.508,5.333 -0.014,0.024 -0.014,0.05 -0.025,0.075 -0.118,0.092 -0.211,0.217 -0.248,0.38 -0.237,1.054 -0.283,2.21 -0.176,3.394 -0.703,0.486 -1.284,1.235 -1.755,1.879 -0.761,1.04 -1.011,2.111 -1.182,3.368 -0.022,0.165 0.027,0.297 0.108,0.395 -0.167,3.769 4.796,5.442 4.796,9.201 0,0.245 0.084,0.427 0.198,0.578 -0.512,0.979 -0.491,2.023 0.262,3.047 0.864,1.175 2.437,1.581 3.783,1.045 1.303,-0.518 2.186,-1.768 2.08,-3.191 -0.072,-0.959 -0.79,-2.332 -1.827,-2.586 -0.23,-1.311 -0.639,-2.571 -1.079,-3.831 0.547,0.368 1.127,0.674 1.738,0.898 0.128,0.047 0.255,0.05 0.38,0.035 2.206,0.592 4.354,0.089 6.342,-1.212 1.328,-0.869 3.286,-2.54 3.421,-4.304 0.616,0.423 1.318,0.766 2.051,1.031 -1.497,2.275 -2.643,4.791 -4.131,7.081 -1.579,2.431 -3.854,4.475 -5.199,7.026 -0.029,0.055 -0.036,0.11 -0.055,0.165 -1.648,-0.59 -3.561,-0.686 -5.384,-0.462 -2.711,0.333 -5.444,0.896 -8.171,1.625 1.212,-2.894 -3.145,-5.066 -5.925,-5.554 z m -39.817,35.238 c 10.123,-9.639 22.058,-17.444 34.981,-22.784 5.851,-2.418 12.146,-4.736 18.409,-5.803 1.849,-0.315 3.751,-0.149 5.189,0.609 -10.631,21.812 -18.7,45.054 -27.012,67.799 -0.413,0.042 -0.787,0.374 -0.613,0.875 -8.284,-1.775 -16.605,-3.398 -24.918,-5.03 -6.874,-1.349 -20.529,-1.623 -23.601,-9.165 0.386,-3.39 1.589,-6.81 3.217,-9.567 3.72,-6.299 9.07,-11.909 14.348,-16.934 z m -24.428,33.471 c -2.585,-4.027 -0.607,-8.543 -0.028,-12.808 2.77,-2.046 5.197,-4.575 7.848,-6.774 0.742,-0.615 1.534,-1.207 2.344,-1.794 -3.84,5.327 -6.91,11.544 -6.169,18.279 0.254,2.31 0.985,4.466 2.115,6.339 -2.242,-0.599 -4.555,-0.819 -6.11,-3.242 z m -15.068,25.184 c 3.186,-5.311 9.482,-9.134 15.222,-10.987 5.658,-1.827 10.959,-1.558 16.664,-0.97 7.4,11.241 15.272,22.204 23.037,33.184 1.502,2.125 2.994,4.271 4.485,6.422 -2.46,-0.721 -5.041,-1.187 -7.461,-1.807 -4.254,-1.089 -7.212,-2.291 -10.439,-5.103 -0.089,-0.505 -0.422,-0.958 -1.072,-1.119 -7.839,-1.942 -15.606,-4.147 -23.275,-6.68 -3.285,-1.085 -6.553,-2.224 -9.799,-3.422 -4.525,-1.667 -11.347,-2.873 -7.362,-9.518 z m 40.427,23.019 c 1.085,2.101 3.366,3.377 5.674,4.24 0.601,0.225 1.231,0.452 1.871,0.679 0.045,0.09 0.099,0.179 0.172,0.266 0.015,0.018 0.027,0.038 0.042,0.056 -2.228,3.831 -4.14,7.841 -6.339,11.689 -1.107,1.937 -2.336,3.868 -4.397,4.863 -2.277,1.099 -4.603,0.143 -6.915,-0.35 4.279,-6.324 7.328,-14.18 9.892,-21.443 z m -11.728,19.627 c -1.719,-1.03 -3.55,-1.884 -5.304,-2.865 0.523,-2.248 1.278,-4.391 2.457,-6.408 1.849,-3.164 4.759,-2.262 7.623,-1.537 -1.685,3.58 -3.337,7.17 -4.776,10.81 z m 5.906,-13.212 c -3.051,-0.768 -6.798,-2.348 -9.286,0.206 -2.589,2.657 -3.977,6.909 -4.619,10.469 -0.101,0.559 0.094,1.142 0.612,1.429 2.108,1.167 4.348,2.355 6.733,2.831 -0.122,0.567 0.235,0.956 0.709,1.095 9.763,9.648 17.436,-5.931 21.308,-14.42 3.715,6.952 1.739,15.512 -3.84,21.353 -6.278,6.573 -16.22,8.084 -24.299,4.007 -7.739,-3.905 -12.201,-12.834 -10.947,-21.39 1.169,-7.976 6.449,-12.416 12.767,-16.108 4.581,1.456 9.39,3.132 14.038,3.595 -1.016,2.319 -2.09,4.627 -3.176,6.933 z m 20.386,45.064 c -12.201,7.127 -28.09,6.678 -40.91,1.427 -12.993,-5.322 -21.206,-15.544 -22.831,-29.587 -1.542,-13.32 1.257,-25.047 10.763,-34.261 0.034,0.026 0.062,0.057 0.104,0.077 5.653,2.594 12.002,3.973 17.987,5.654 -6.598,3.389 -11.232,11.155 -11.815,18.218 -0.826,10.02 5.064,19.835 14.444,23.531 9.655,3.804 20.712,0.842 27.019,-7.415 4.297,-5.626 6.607,-14.87 3.197,-21.468 1.753,0.779 3.606,1.318 5.479,1.759 1.61,0.379 3.287,0.852 4.953,0.945 2.353,3.393 4.718,6.784 7.137,10.129 1.02,12.834 -3.849,24.17 -15.527,30.991 z m 27.802,-19.118 c -0.029,-0.079 -0.068,-0.158 -0.118,-0.235 -8.008,-12.383 -17.385,-24.03 -25.902,-36.081 -8.546,-12.093 -16.743,-24.439 -25.351,-36.485 -0.144,-0.201 -0.316,-0.337 -0.5,-0.43 -0.144,-0.131 -0.326,-0.236 -0.56,-0.295 -6.246,-1.574 -8.559,-6.421 -8.564,-11.74 2.938,4.172 10.091,5.257 14.734,6.26 11.455,2.475 22.932,4.913 34.442,7.113 7.746,21.506 15.941,42.9 24.812,63.965 0.105,0.25 0.311,0.371 0.527,0.408 -0.12,0.245 0.045,0.608 0.38,0.625 2.117,0.107 4.257,-0.213 6.362,-0.429 1.014,-0.104 2.049,-0.164 3.073,-0.281 8.648,0.004 17.732,-2.04 26.196,-3.441 9.694,-1.604 19.323,-3.562 28.887,-5.813 0.538,0.082 1.103,-0.331 1.076,-1.026 0.042,-0.272 0.003,-0.559 -0.106,-0.823 -2.494,-15.666 -3.483,-30.987 5.18,-45.194 7.913,-12.977 22.061,-20.99 36.683,-23.971 0.836,-0.17 1.675,-0.31 2.514,-0.449 -10.908,3.081 -20.891,9.353 -28.101,18.326 -12.37,15.393 -15.128,36.664 -8.07,54.881 -28.902,6.254 -58.086,11.309 -87.594,15.115 z m 115.454,-5.807 c -11.301,-0.012 -22.602,0.004 -33.904,0.012 -7.765,0.005 -15.64,-0.236 -23.46,-0.009 33.092,-5.948 65.941,-13.642 98.198,-23.071 5.615,1.343 8.314,9.235 7.049,14.544 -1.429,6.001 -7.933,6.926 -13.102,7.42 -11.555,1.104 -23.185,1.116 -34.781,1.104 z m 45.895,-23.308 c 0.924,-0.191 1.841,-0.431 2.754,-0.708 3.445,2.049 6.284,4.526 7.73,8.725 1.893,5.495 0.508,11.359 -3.197,15.77 -3.434,4.088 -8.435,6.423 -13.765,6.463 -5.119,0.039 -8.697,-2.14 -12.849,-4.214 8.925,-0.086 20.846,-0.561 23.904,-9.244 2.113,-6.001 0.121,-13.313 -4.577,-16.792 z m 32.117,23.442 c -1.718,10.966 -7.82,19.995 -17.993,24.715 -17.517,8.129 -52.225,2.76 -56.539,-19.498 4.006,0.262 8.144,-0.71 12.085,-1.289 2.719,-0.4 5.512,-0.7 8.249,-1.196 3.23,4.913 10.759,6.905 16.317,6.705 6.489,-0.233 12.504,-3.578 16.223,-8.883 5.382,-7.677 3.978,-20.686 -3.845,-26.025 1.643,-0.608 3.275,-1.234 4.905,-1.765 3.781,-1.23 7.824,-2.056 11.53,-3.513 9.319,7.361 10.855,19.339 9.068,30.749 z m -1.515,-75.1 c 0.808,1.279 1.244,2.734 1.322,4.243 0.022,0.434 -0.011,0.842 -0.05,1.241 -0.509,-0.405 -1.026,-0.799 -1.554,-1.176 -2.102,-1.505 -4.341,-2.867 -6.673,-4.112 0.074,-1.323 0.094,-2.802 -0.177,-4.102 2.87,0.375 5.44,1.227 7.132,3.906 z m -16.559,-5.134 c 1.842,0.1 5.775,-0.546 6.815,1.176 0.405,0.671 0.496,1.815 0.528,2.999 -3.485,-1.701 -7.153,-3.148 -10.91,-4.376 1.192,0.073 2.382,0.137 3.567,0.201 z m -1.91,3.661 c 3.125,1.086 6.4,2.461 9.586,4.122 0.155,0.228 0.392,0.328 0.646,0.34 11.786,6.316 22.092,16.626 18.473,31.105 -0.003,0.012 -0.002,0.022 -0.005,0.034 -37.432,12.53 -75.283,22.991 -113.632,31.328 -6.703,-17.716 -3.831,-38.855 8.115,-53.715 12.118,-15.073 32.268,-22.384 51.25,-19.304 0.203,0.033 0.372,-0.018 0.515,-0.104 8.556,1.162 17.004,3.399 25.052,6.194 z m -30.126,-9.49 c 3.443,-2.572 7.443,-2.727 11.519,-2.757 0.138,1.411 0.15,2.844 0.052,4.248 -2.158,-0.377 -4.298,-0.707 -6.395,-0.984 -1.708,-0.225 -3.438,-0.382 -5.176,-0.507 z m -2.504,-0.157 c -2.384,-0.103 -4.784,-0.116 -7.186,-0.022 1.986,-3.068 4.228,-5.601 8.047,-6.651 4.191,-1.152 8.614,0.252 12.857,-0.538 1.937,-0.361 3.805,-1.244 5.192,-2.496 -0.201,1.401 0.348,2.975 1.396,3.933 -7.369,0.811 -17.277,-1.357 -20.306,5.774 z M 428.03,304.392 c 0.057,0.521 0.166,1.033 0.132,1.572 -0.033,0.526 -0.179,1.02 -0.314,1.521 -7.478,-0.952 -15.418,-0.252 -22.932,-0.25 -8.154,0.002 -16.308,0.003 -24.462,0.005 -16.565,0.004 -33.155,-0.246 -49.717,0.087 -0.482,-0.331 -0.879,-0.706 -0.979,-1.372 -0.096,-0.638 0.194,-1.218 0.495,-1.766 7.591,0.924 15.519,0.453 23.148,0.469 8.695,0.018 17.39,0.007 26.086,0.011 8.395,0.004 16.791,0.003 25.186,0 7.52,-0.003 15.867,0.921 23.357,-0.277 z m -88.528,-23.866 c 0.004,-6.349 0.007,-12.698 0.011,-19.047 0.004,-6.349 0.016,-12.698 0.025,-19.047 0.003,-1.888 0.085,-3.841 0.159,-5.812 12.603,-0.529 25.41,0.263 38.031,0.277 12.452,0.014 25.238,0.797 37.665,-0.093 2.044,0.645 4.071,1.323 5.994,2.333 2.028,1.064 3.676,2.84 5.615,3.984 -0.755,3.787 -0.364,7.864 -0.372,11.698 -0.011,5.053 -0.014,10.106 10e-4,15.159 0.026,8.723 -0.781,18.092 0.498,26.765 -0.105,0.797 -0.268,1.524 -0.821,2.256 -0.745,0.986 -1.842,1.281 -2.705,2.092 -0.183,0.172 -0.276,0.389 -0.307,0.615 -5.891,-0.328 -12.044,0.226 -17.774,0.224 -8.395,-0.003 -16.79,-0.004 -25.186,-0.001 -8.395,0.004 -16.79,0.006 -25.186,0.011 -4.63,0.002 -9.377,-0.162 -14.1,-0.128 -0.707,-0.875 -1.641,-1.379 -1.94,-2.561 0.035,-0.087 0.076,-0.167 0.09,-0.279 0.748,-6.06 0.299,-12.346 0.302,-18.446 z m 89.623,-38.96 c -1.422,-2.52 -4.846,-4.306 -7.27,-5.404 -2.641,-1.197 -5.517,-1.901 -8.392,-1.627 -11.833,-0.688 -23.954,0.008 -35.777,0.021 -12.587,0.015 -25.36,0.801 -37.929,0.28 0.113,-3.681 0.105,-7.383 -0.608,-10.825 -0.022,-0.105 -0.067,-0.191 -0.115,-0.274 0.255,-0.584 0.437,-1.222 0.858,-1.726 0.768,-0.919 1.58,-1.145 2.582,-1.443 6.234,0.74 12.792,0.217 19.043,0.218 7.226,0 14.452,-0.002 21.677,-0.003 7.226,-10e-4 14.452,0.018 21.677,-0.003 6.368,-0.018 12.915,0.264 19.281,-0.389 5.489,0.966 6.271,6.055 6.561,10.858 0.19,3.155 1.243,8.328 -1.588,10.317 z m 4.791,-7.236 c -0.088,-1.125 -0.201,-2.199 -0.258,-3.134 -0.061,-1.001 -0.224,-2.302 -0.509,-3.69 1.082,1.034 2.037,2.05 2.031,3.837 -0.005,1.344 -0.547,2.213 -1.264,2.987 z"
   id="path74" />
		<path
   style="fill:#e59339"
   d="m 382.102,294.23 c 14.566,0 26.552,-11.986 26.552,-26.552 0,-2.992 -0.506,-5.962 -1.495,-8.785 l -3.992,1.4 c 0.832,2.374 1.257,4.871 1.257,7.386 0,12.246 -10.077,22.322 -22.323,22.322 -12.246,0 -22.322,-10.077 -22.322,-22.322 0,-12.246 10.077,-22.323 22.322,-22.323 0.659,0 1.319,0.029 1.975,0.088 l 0.374,-4.214 c -0.781,-0.069 -1.565,-0.104 -2.35,-0.104 -14.566,0 -26.552,11.986 -26.552,26.553 10e-4,14.565 11.988,26.551 26.554,26.551 z"
   id="path75" />
		<path
   style="fill:#e59339"
   d="m 401.593,256.088 3.873,-1.844 c -1.48,-3.109 -3.639,-5.846 -6.318,-8.009 -2.678,-2.163 -5.808,-3.698 -9.159,-4.491 l -0.994,4.201 c 2.717,0.683 5.256,1.944 7.438,3.706 2.165,1.749 3.921,3.947 5.16,6.437 z"
   id="path76" />
		<polygon
   style="fill:#c1c1c1"
   points="382.102,267.678 384.078,245.443 384.077,245.443 "
   id="polygon76" />
		<polygon
   style="fill:#c1c1c1"
   points="382.102,267.678 403.167,260.292 "
   id="polygon77" />
		<path
   style="fill:#ffd469"
   d="m 359.78,267.678 c 0,12.246 10.077,22.322 22.322,22.322 12.245,0 22.323,-10.077 22.323,-22.322 0,-2.515 -0.425,-5.012 -1.257,-7.386 l -21.065,7.386 1.975,-22.235 c -0.657,-0.058 -1.316,-0.088 -1.975,-0.088 -12.247,0 -22.323,10.077 -22.323,22.323 z m 10.286,-1.535 c -1.488,0 -2.695,-1.207 -2.695,-2.695 0,-1.488 1.207,-2.695 2.695,-2.695 1.488,0 2.695,1.206 2.695,2.695 0,1.489 -1.207,2.695 -2.695,2.695 z m 8.469,7.507 c -0.85,0 -1.54,-0.69 -1.54,-1.54 0,-0.851 0.69,-1.54 1.54,-1.54 0.85,0 1.54,0.689 1.54,1.54 0,0.851 -0.689,1.54 -1.54,1.54 z m 12.704,0 c 1.701,0 3.08,1.379 3.08,3.08 0,1.701 -1.379,3.08 -3.08,3.08 -1.701,0 -3.08,-1.379 -3.08,-3.08 0,-1.701 1.379,-3.08 3.08,-3.08 z"
   id="path77" />
		<path
   style="fill:#fc3535"
   d="m 426.635,269.974 c -0.018,-5.046 -0.018,-10.101 0,-15.156 0,-0.53 -0.009,-1.06 -0.018,-1.591 -0.064,-3.355 -0.265,-6.838 0.384,-10.11 -1.938,-1.143 -3.583,-2.916 -5.613,-3.976 -1.92,-1.015 -3.949,-1.691 -5.997,-2.34 -12.423,0.896 -25.211,0.11 -37.662,0.101 -12.624,-0.018 -25.431,-0.814 -38.027,-0.283 -0.046,1.179 -0.101,2.349 -0.128,3.501 -0.027,0.777 -0.037,1.554 -0.037,2.313 -0.009,6.353 -0.018,12.697 -0.027,19.05 0,6.344 -0.009,12.697 -0.009,19.041 0,6.106 0.448,12.386 -0.302,18.447 -0.009,0.11 -0.055,0.192 -0.091,0.283 0.302,1.179 1.234,1.682 1.947,2.56 4.717,-0.037 9.47,0.128 14.096,0.128 8.392,-0.009 16.792,-0.009 25.184,-0.009 8.401,-0.009 16.792,-0.009 25.184,0 5.732,0 11.884,-0.558 17.78,-0.229 0.027,-0.228 0.119,-0.439 0.302,-0.612 0.868,-0.814 1.965,-1.106 2.706,-2.093 0.558,-0.731 0.722,-1.463 0.823,-2.258 -1.281,-8.677 -0.477,-18.038 -0.495,-26.767 z m -37.643,-24.033 0.996,-4.196 c 3.355,0.795 6.481,2.322 9.159,4.488 2.678,2.166 4.836,4.9 6.317,8.008 l -3.876,1.846 -16.902,8.044 z m -6.893,48.293 c -14.562,0 -26.546,-11.993 -26.546,-26.555 0,-14.571 11.984,-26.555 26.546,-26.555 0.786,0 1.572,0.037 2.349,0.11 l -0.375,4.205 -1.974,22.24 21.07,-7.386 3.986,-1.399 c 0.996,2.825 1.499,5.796 1.499,8.785 0,14.562 -11.984,26.555 -26.555,26.555 z"
   id="path78" />
		<path
   style="fill:#ffd469"
   d="m 401.593,256.088 c -1.238,-2.49 -2.995,-4.688 -5.16,-6.437 -2.181,-1.762 -4.721,-3.022 -7.438,-3.706 l -4.305,18.19 z m -8.814,-4.188 c 0.85,0 1.54,0.689 1.54,1.54 0,0.85 -0.689,1.54 -1.54,1.54 -0.85,0 -1.54,-0.689 -1.54,-1.54 0,-0.851 0.69,-1.54 1.54,-1.54 z"
   id="path79" />
		<path
   style="fill:#fc3535"
   d="m 370.066,260.754 c -1.488,0 -2.695,1.206 -2.695,2.695 0,1.488 1.207,2.695 2.695,2.695 1.488,0 2.695,-1.207 2.695,-2.695 0,-1.489 -1.207,-2.695 -2.695,-2.695 z"
   id="path80" />
		<path
   style="fill:#6fb259"
   d="m 378.535,270.57 c -0.85,0 -1.54,0.689 -1.54,1.54 0,0.85 0.69,1.54 1.54,1.54 0.85,0 1.54,-0.69 1.54,-1.54 0,-0.85 -0.689,-1.54 -1.54,-1.54 z"
   id="path81" />
		
			<circle
   transform="matrix(0.9869,-0.1616,0.1616,0.9869,-39.5707,66.8481)"
   style="fill:#fc3535"
   cx="391.23901"
   cy="276.73001"
   id="ellipse81"
   r="3.0799999" />
		<path
   style="fill:#6fb259"
   d="m 392.779,254.979 c 0.85,0 1.54,-0.689 1.54,-1.54 0,-0.85 -0.689,-1.54 -1.54,-1.54 -0.85,0 -1.54,0.689 -1.54,1.54 0,0.851 0.69,1.54 1.54,1.54 z"
   id="path82" />
		<path
   style="fill:#db193a"
   d="m 257.633,164.374 c -4.543,2.88 -18.922,9.708 -21.564,1.6 -1.216,-3.711 -0.85,-8.529 -1.225,-12.423 -0.357,-3.629 -0.731,-7.249 -1.289,-10.851 0.475,-0.74 0.329,-1.929 -0.786,-2.24 -9.69,-2.742 -19.462,-5.229 -29.224,-7.697 -8.51,-2.157 -17.085,-4.863 -25.76,-6.417 4.799,-0.704 9.708,-1.28 14.324,-2.569 0.677,-0.192 0.951,-0.832 0.868,-1.426 1.326,-2.093 2.815,-4.031 4.434,-5.823 0.21,2.413 1.179,4.836 2.706,6.728 3.099,3.83 7.551,6.362 12.249,7.843 7.798,2.45 16.436,3.263 24.48,1.847 8.053,-1.417 15.805,-5.823 20.028,-12.816 1.664,-2.752 2.761,-5.933 2.605,-9.141 4.388,3.382 7.999,7.688 10.302,12.926 6.417,14.553 1.271,31.912 -12.148,40.459 z"
   id="path83" />
		<path
   style="fill:#ff7443"
   d="m 212.161,118.104 c 4.639,0.096 9.591,-0.949 12.847,-4.255 0.885,-0.899 1.637,-1.978 1.909,-3.21 0.272,-1.232 -0.006,-2.631 -0.919,-3.502 -0.92,-0.877 -2.287,-1.082 -3.558,-1.084 -2.905,-0.003 -5.763,0.834 -8.399,2.056 -1.449,0.672 -2.862,1.475 -3.993,2.601 -1.132,1.127 -1.966,2.612 -2.068,4.205 -0.03,0.47 0.006,0.954 0.19,1.388 0.603,1.426 2.444,1.768 3.991,1.801 z"
   id="path84" />
		<path
   style="fill:#f07565"
   d="m 231.982,156.632 c -2.386,0.686 -4.561,2.038 -6.902,2.916 -0.859,0.32 -1.737,0.622 -2.614,0.887 -0.256,-3.4 -0.914,-6.774 -1.216,-10.183 -6.874,1.38 -14.178,0.128 -20.321,-3.218 0.951,0 1.865,0.137 2.779,0.823 1.234,0.942 2.953,-0.804 1.7,-1.764 -1.764,-1.353 -5.092,-2.267 -6.883,-0.503 -1.197,-0.804 -2.331,-1.691 -3.391,-2.669 -0.347,-2.148 -0.686,-4.306 -1.042,-6.472 6.28,5.887 14.205,9.479 22.917,9.955 1.234,0.064 1.563,-1.7 0.576,-2.258 -0.923,-0.512 -1.7,-1.06 -2.386,-1.719 4.827,1.289 9.909,1.499 14.772,0.292 0.484,0.128 0.969,0.256 1.453,0.384 0.046,4.406 0.174,9.004 0.558,13.529 z"
   id="path85" />
		<path
   style="fill:#2fc0b1"
   d="m 228.088,178.196 c -4.689,4.635 -10.22,8.126 -16.939,10.604 -0.146,-0.082 -0.311,-0.146 -0.494,-0.155 -0.091,-0.009 -0.174,-0.018 -0.265,-0.027 7.423,-6.207 12.167,-15.686 12.194,-25.385 3.529,-0.887 7.084,-2.24 9.607,-4.351 0.055,0.558 0.137,1.106 0.201,1.664 -2.624,0.996 -5.119,2.816 -6.015,5.521 -1.232,3.747 0.194,8.5 1.711,12.129 z"
   id="path86" />
		<path
   style="fill:#f07565"
   d="m 244.131,179.915 c -1.6,1.627 -3.272,3.3 -4.9,5.019 -0.384,0.192 -0.768,0.384 -1.152,0.567 -1.417,0.676 -2.861,1.344 -4.351,1.874 -0.165,-0.174 -0.311,-0.32 -0.457,-0.457 -0.357,-0.347 -0.722,-0.631 -1.115,-0.878 1.764,-0.996 3.318,-2.432 4.872,-3.684 1.609,-1.298 3.19,-2.605 4.781,-3.921 0.75,0.538 1.518,1.05 2.322,1.48 z"
   id="path87" />
		<path
   style="fill:#9fffe4"
   d="m 197.676,165.97 c -0.354,0.21 -0.522,0.627 -0.635,1.023 -0.549,1.923 -0.35,4.005 0.28,5.902 0.63,1.898 1.67,3.633 2.809,5.277 1.626,2.347 3.599,4.639 6.283,5.614 -1.667,-1.994 -3.302,-4.065 -4.315,-6.459 -1.013,-2.394 -1.347,-5.179 -0.373,-7.589 0.192,-0.476 0.437,-0.949 0.457,-1.463 0.031,-0.806 -0.525,-1.55 -1.229,-1.945 -0.704,-0.395 -1.533,-0.496 -2.34,-0.52 -0.322,-0.01 -0.661,-0.004 -0.937,0.16 z"
   id="path88" />
		<path
   style="fill:#1aad83"
   d="m 187.785,246.554 c 0.448,-0.164 0.868,-0.402 1.243,-0.686 -0.987,0.804 -1.783,1.984 -2.87,2.642 -1.271,0.777 -2.852,1.28 -4.379,1.618 -1.243,-1.581 -2.733,-2.843 -3.839,-4.534 0,-0.009 0,-0.009 0,-0.018 -0.576,-2.596 1.389,-5.311 3.986,-6.6 -0.695,1.042 -1.06,2.313 -0.914,3.4 0.401,3.081 3.838,5.247 6.773,4.178 z"
   id="path89" />
		<path
   style="fill:#1aad83"
   d="m 212.347,242.651 c 0.055,0 0.119,0.009 0.174,0.009 0.018,2.303 0,4.607 -0.055,6.92 -4.443,-0.567 -8.538,-1.892 -12.834,-3.209 0.146,-0.667 -0.274,-1.408 -1.124,-1.426 -1.508,-0.037 -2.87,0.393 -4.415,0.137 -1.243,-0.21 -2.322,-0.722 -3.437,-1.243 0.667,-1.399 0.759,-3.053 0,-4.461 -0.101,-0.174 -0.21,-0.356 -0.347,-0.53 1.773,0.466 3.538,1.097 5.293,1.6 5.428,1.535 11.114,1.874 16.745,2.203 z"
   id="path90" />
		<path
   style="fill:#2f6d93"
   d="m 246.627,189.019 c -1.682,-0.768 -3.337,-1.554 -4.863,-2.523 1.618,-1.828 3.181,-3.693 4.699,-5.466 1.773,0.731 3.629,1.216 5.512,1.499 -1.783,2.194 -3.557,4.351 -5.348,6.49 z"
   id="path91" />
		<path
   style="fill:#db193a"
   d="m 249.049,190.125 c 1.536,-1.993 2.98,-4.031 4.324,-6.097 1.975,1.435 3.949,2.861 5.896,4.296 -2.934,0.137 -5.165,1.527 -6.81,3.547 -1.097,-0.631 -2.249,-1.197 -3.41,-1.746 z"
   id="path92" />
		<path
   style="fill:#f07565"
   d="m 275.668,238.555 c 1.92,3.931 -0.932,7.697 -4.881,8.775 -2.56,0.704 -5.256,0.594 -7.889,0.53 -5.403,-0.128 -10.805,-0.329 -16.217,-0.494 -10.357,-0.32 -21.034,-1.225 -31.391,-0.521 0.009,-1.344 0,-2.688 -0.018,-4.031 13.794,0.786 27.661,1.389 41.309,-0.649 2.651,-0.393 5.457,-0.969 7.368,-2.852 0.055,-0.055 0.11,-0.11 0.155,-0.174 3.959,0.44 7.999,0.248 11.564,-0.584 z"
   id="path93" />
		<path
   style="fill:#db193a"
   d="m 263.556,191.908 c 0.804,0.375 1.527,0.859 2.194,1.408 0.119,0.091 0.229,0.192 0.338,0.283 4.872,4.305 6.307,12.642 7.733,18.474 1.6,6.518 2.706,13.108 3.538,19.754 -3.675,0.064 -7.249,-0.055 -10.805,-0.347 0.018,-0.823 -0.018,-1.636 -0.064,-2.441 -0.411,-7.011 -1.554,-13.977 -3.4,-20.76 -1.453,-5.302 -3.492,-10.741 -7.67,-14.324 -0.265,-0.229 -0.539,-0.448 -0.814,-0.658 1.948,-2.532 4.809,-3.373 8.95,-1.389 z"
   id="path94" />
		<path
   style="fill:#c9d6f2"
   d="m 277.487,232.87 c 0.091,0.786 0.183,1.572 0.274,2.368 -3.995,0.439 -7.834,1.152 -11.902,0.96 0.375,-1.088 0.567,-2.267 0.649,-3.474 3.685,0.283 7.378,0.319 10.979,0.146 z"
   id="path95" />
		<path
   style="fill:#6395a5"
   d="m 277.588,289.362 c 0.795,1.252 1.7,2.45 2.724,3.483 -2.112,1.079 -4.424,1.883 -6.691,2.459 -0.165,0.046 -0.329,0.082 -0.494,0.119 0.731,-0.731 1.417,-1.499 2.057,-2.313 0.923,-1.179 1.718,-2.432 2.404,-3.748 z"
   id="path96" />
		<path
   style="fill:#6395a5"
   d="m 288.841,281.446 c -0.32,4.653 -2.989,7.944 -6.545,10.247 -0.027,-0.046 -0.046,-0.091 -0.082,-0.137 -1.088,-1.7 -2.294,-3.3 -3.355,-5.009 0.603,-1.6 1.07,-3.254 1.399,-4.945 1.901,0.036 3.803,0.018 5.695,-0.046 0.95,-0.028 1.919,-0.064 2.888,-0.11 z"
   id="path97" />
		<path
   style="fill:#db193a"
   d="m 282.323,249.415 c -0.485,-1.851 -0.989,-3.702 -1.501,-5.553 -0.114,-0.413 -0.23,-0.826 -0.345,-1.238 -0.225,-0.808 -0.448,-1.616 -0.676,-2.424 -0.003,0 -0.006,0.001 -0.009,0.001 -0.253,-0.893 -0.501,-1.786 -0.758,-2.68 -0.32,0.128 -0.649,0.247 -0.978,0.366 0.464,0.771 0.758,1.589 0.901,2.422 -0.002,0 -0.004,0 -0.005,0.001 l -0.192,0.027 -1.542,6.16 c -0.32,0.398 -0.676,0.776 -1.072,1.126 -4.095,3.611 -9.927,3.181 -14.992,3.026 -4.488,-0.137 -9.022,-0.192 -13.584,-0.238 0.722,2.185 1.115,4.479 1.262,6.81 3.547,0.32 7.121,0.512 10.686,0.695 3.364,0.174 6.737,0.347 10.074,-0.064 2.102,-0.256 4.205,-0.749 6.079,-1.737 0.616,-0.322 1.194,-0.699 1.747,-1.109 1.725,5.663 3.181,11.411 3.482,17.307 0.11,2.112 0.064,4.26 -0.183,6.381 1.728,0.027 3.455,0.009 5.183,-0.046 0.841,-0.028 1.691,-0.055 2.55,-0.091 -1.41,-9.909 -3.595,-19.544 -6.127,-29.142 z"
   id="path98" />
		<path
   style="fill:#f07565"
   d="m 213.919,381.469 c 0.357,-1.097 0.485,-2.24 0.329,-3.346 1.618,-0.137 3.245,-0.347 4.836,-0.631 -0.393,1.216 -0.704,2.386 -2.066,3.245 -0.95,0.604 -2.02,0.778 -3.099,0.732 z"
   id="path99" />
		<path
   style="fill:#acb2e5"
   d="m 227.878,390.802 c -3.547,0.686 -7.103,1.353 -10.668,1.947 -8.739,1.472 -17.953,1.828 -26.619,3.684 2.029,-2.249 5,-3.702 7.916,-4.726 3.858,-1.362 7.98,-2.276 11.298,-4.671 1.179,-0.85 2.23,-1.974 3.026,-3.227 1.81,0.622 3.94,0.311 5.622,-0.704 1.271,-0.777 2.633,-2.304 3.236,-3.949 0.695,0.009 1.38,0.064 1.801,0.75 0.576,0.941 -0.229,1.846 0.1,2.751 0.101,0.293 0.329,0.448 0.631,0.475 0.722,0.96 1.472,1.901 2.048,2.971 0.74,1.353 1.024,2.742 1.38,4.223 0.046,0.184 0.128,0.348 0.229,0.476 z"
   id="path100" />
		<path
   style="fill:#ef520c"
   d="m 130.671,317.023 c 2.331,-0.777 4.616,-1.655 6.856,-2.651 4.479,0.21 8.977,0.347 13.456,0.457 -0.146,1.134 -0.32,2.541 -0.731,3.218 -1.033,1.728 -3.867,2.925 -5.713,3.035 -2.87,0.174 -6.207,-0.558 -9.068,-0.887 -2.076,-0.237 -4.645,-0.073 -4.8,-3.172 z"
   id="path101" />
		<path
   style="fill:#ffc024"
   d="m 151.11,313.897 c -3.867,-0.183 -7.733,-0.338 -11.609,-0.439 4.708,-2.276 9.123,-5.083 13.118,-8.492 0.137,-0.119 0.274,-0.228 0.402,-0.347 -0.475,3.035 -1.28,6.051 -1.865,9.004 -0.009,0.082 -0.028,0.183 -0.046,0.274 z"
   id="path102" />
		<path
   style="fill:#fc8f1a"
   d="m 182.894,264.617 c -10.631,21.811 -18.703,45.057 -27.012,67.8 -0.411,0.037 -0.786,0.375 -0.612,0.878 -8.282,-1.783 -16.61,-3.401 -24.919,-5.037 -6.143,-1.198 -17.688,-1.545 -22.268,-6.984 0.411,-0.018 0.832,-0.055 1.243,-0.082 6.088,-0.466 12.203,-1.49 18.1,-3.172 0.055,1.17 0.539,2.267 1.581,3.218 2.587,2.34 7.441,2.011 10.64,2.322 3.666,0.366 8.702,1.801 11.618,-1.234 2.843,-2.953 2.788,-8.885 3.465,-12.688 0.457,-2.55 1.033,-5.064 0.996,-7.551 9.498,-9.543 15.412,-22.935 14.297,-36.217 2.55,-0.777 5.119,-1.426 7.679,-1.865 1.846,-0.311 3.757,-0.147 5.192,0.612 z"
   id="path103" />
		<path
   style="fill:#ffe3a4"
   d="m 156.213,277.423 c -2.073,2.208 -4.898,3.517 -7.591,4.902 -3.78,1.944 -7.431,4.135 -10.958,6.507 -8.761,5.89 -16.767,12.903 -23.758,20.813 9.362,-14.854 23.008,-26.973 38.863,-34.515 0.791,-0.376 1.636,-0.751 2.509,-0.664 0.872,0.087 1.743,0.817 1.655,1.689 -0.051,0.493 -0.381,0.907 -0.72,1.268 z"
   id="path104" />
		<path
   style="fill:#fc8f1a"
   d="m 255.201,391.515 c -27.021,5.85 -54.299,10.65 -81.85,14.361 -10.869,-20.193 -23.712,-39.197 -42.278,-52.233 -0.64,-0.448 -1.289,-0.896 -1.947,-1.326 -4.26,-6.189 -8.52,-12.377 -12.889,-18.483 -0.146,-0.201 -0.311,-0.338 -0.494,-0.43 -0.146,-0.137 -0.329,-0.238 -0.567,-0.302 -6.243,-1.572 -8.556,-6.417 -8.565,-11.737 2.943,4.168 10.092,5.256 14.736,6.262 11.454,2.468 22.935,4.909 34.444,7.112 7.743,21.509 15.942,42.9 24.809,63.961 0.11,0.256 0.311,0.375 0.53,0.411 -0.119,0.247 0.046,0.613 0.384,0.622 2.112,0.11 4.251,-0.21 6.362,-0.43 1.015,-0.101 2.048,-0.165 3.071,-0.274 8.648,0 17.725,-2.048 26.199,-3.446 9.69,-1.6 19.315,-3.556 28.886,-5.814 0.53,0.082 1.097,-0.329 1.07,-1.024 0.046,-0.274 0.009,-0.558 -0.101,-0.823 -0.914,-5.759 -1.627,-11.472 -1.728,-17.094 1.965,-8.035 5.302,-15.714 10.128,-22.423 0.603,-0.832 1.225,-1.655 1.874,-2.45 -7.065,14.023 -7.796,30.797 -2.074,45.56 z"
   id="path105" />
		<path
   style="fill:#fc8f1a"
   d="m 144.227,378.9 c -2.459,-0.722 -5.046,-1.188 -7.459,-1.801 -4.26,-1.097 -7.212,-2.294 -10.439,-5.11 -0.091,-0.503 -0.42,-0.951 -1.079,-1.115 -7.834,-1.938 -15.604,-4.15 -23.273,-6.682 -3.062,-1.015 -6.116,-2.075 -9.15,-3.181 4.397,-0.649 8.675,-1.828 12.752,-3.739 3.675,-1.719 7.386,-4.461 8.035,-8.465 0.466,-2.88 -0.813,-5.814 -2.733,-7.999 -0.622,-0.704 -1.307,-1.353 -2.039,-1.947 2.578,-0.046 5.174,0.155 7.862,0.43 7.404,11.244 15.275,22.204 23.036,33.192 1.507,2.121 2.997,4.269 4.487,6.417 z"
   id="path106" />
		<path
   style="fill:#ffe3a4"
   d="m 94.181,351.197 c 1.569,-2.131 3.914,-3.523 6.011,-5.137 0.243,-0.187 0.494,-0.391 0.611,-0.675 0.311,-0.758 -0.505,-1.526 -1.298,-1.734 -1.693,-0.445 -3.455,0.37 -4.911,1.34 -2.299,1.531 -4.296,3.513 -5.845,5.799 -0.687,1.014 -1.29,2.367 -0.64,3.405 0.718,1.148 2.525,1.028 3.598,0.201 1.071,-0.827 1.67,-2.108 2.474,-3.199 z"
   id="path107" />
		<path
   style="fill:#fc8f1a"
   d="m 281.016,318.102 c -14.114,4.36 -26.51,13.054 -33.384,27.094 -6.07,12.386 -7.587,28.758 -3.044,42.022 -4.79,1.124 -9.598,2.167 -14.416,3.135 0.037,-0.128 0.064,-0.274 0.055,-0.43 -0.137,-3.017 -1.892,-6.499 -4.488,-8.227 0.046,-0.128 0.082,-0.256 0.101,-0.375 0.183,-0.969 -0.018,-1.956 -0.603,-2.761 -0.411,-0.558 -1.07,-1.033 -1.792,-1.289 0.347,-0.347 0.695,-0.704 1.024,-1.06 1.252,-1.298 2.431,-2.651 3.547,-4.059 2.541,-3.181 4.762,-6.618 6.6,-10.256 3.858,-7.633 6.088,-16.436 4.26,-24.782 -1.197,-5.503 -4.452,-10.686 -8.94,-13.968 -1.792,-2.962 -3.803,-5.832 -5.466,-8.904 1.298,-0.174 2.587,-0.338 3.885,-0.503 9.443,1.783 19.334,2.084 28.877,2.843 7.869,0.624 15.84,1.337 23.784,1.52 z"
   id="path108" />
		<path
   style="fill:#fc8f1a"
   d="m 369.795,359.951 v 0.037 c -37.433,12.533 -75.287,22.99 -113.634,31.327 -3.199,-8.465 -4.214,-17.716 -3.099,-26.683 1.198,2.56 3.41,4.753 5.96,6.042 3.931,1.965 8.456,2.212 12.862,1.911 -1.883,0.512 -3.757,1.033 -5.631,1.572 -1.664,0.475 -0.914,3.007 0.759,2.578 19.279,-4.964 38.612,-9.516 58.211,-13.09 1.837,-0.338 0.996,-3.126 -0.832,-2.797 -8.894,1.627 -17.78,3.41 -26.619,5.366 6.481,-2.797 12.597,-6.435 18.118,-10.832 2.304,-0.448 4.607,-0.887 6.92,-1.307 1.837,-0.338 0.996,-3.126 -0.832,-2.797 -0.549,0.101 -1.106,0.201 -1.655,0.302 6.125,-5.677 11.353,-12.633 13.163,-20.751 0.64,-2.861 0.823,-5.786 0.585,-8.693 2.368,0.695 4.708,1.453 7.02,2.249 3.126,1.088 6.399,2.468 9.589,4.123 0.146,0.229 0.393,0.329 0.64,0.338 11.793,6.314 22.095,16.625 18.475,31.105 z"
   id="path109" />
		<path
   style="fill:#ffe3a4"
   d="m 300.105,326.488 c 0.211,1.413 -0.909,2.74 -2.22,3.308 -1.311,0.569 -2.784,0.578 -4.208,0.695 -6.1,0.502 -11.87,3.15 -16.865,6.689 -4.994,3.539 -9.294,7.953 -13.501,12.399 0.625,-2.643 1.729,-5.173 3.244,-7.427 1.675,-2.494 3.042,-5.065 5.228,-7.126 3.199,-3.017 7.852,-6.4 11.655,-8.608 3.803,-2.208 7.593,-2.784 11.989,-2.695 1.975,0.039 4.387,0.812 4.678,2.765 z"
   id="path110" />
		<path
   style="fill:#443b3d"
   d="m 96.747,376.807 c -4.918,-2.706 -10.064,-5 -15.375,-6.838 1.49,-2.331 3.3,-4.552 5.457,-6.637 0.037,0.018 0.064,0.055 0.101,0.073 5.658,2.596 12.002,3.976 17.99,5.649 -3.309,1.701 -6.116,4.499 -8.173,7.753 z"
   id="path111" />
		<path
   style="fill:#84777b"
   d="m 108.558,370.152 c 4.58,1.463 9.388,3.135 14.041,3.602 -1.015,2.322 -2.093,4.626 -3.181,6.929 -3.044,-0.768 -6.792,-2.349 -9.278,0.21 -0.859,0.878 -1.591,1.938 -2.203,3.09 -2.852,-2.112 -5.823,-4.077 -8.885,-5.869 2.376,-3.309 5.758,-5.768 9.506,-7.962 z"
   id="path112" />
		<path
   style="fill:#84777b"
   d="m 131.036,403.646 c -0.613,0.64 -1.262,1.234 -1.938,1.773 -1.7,-2.368 -3.51,-4.653 -5.421,-6.856 4.927,-2.998 8.794,-10.997 11.198,-16.271 3.721,6.956 1.746,15.512 -3.839,21.354 z"
   id="path113" />
		<path
   style="fill:#443b3d"
   d="m 140.269,425.475 c -2.614,-6.307 -5.878,-12.35 -9.726,-17.99 1.49,-1.17 2.843,-2.541 4.031,-4.095 4.296,-5.622 6.6,-14.864 3.19,-21.464 1.755,0.777 3.611,1.316 5.485,1.755 1.609,0.384 3.282,0.859 4.945,0.951 2.358,3.391 4.726,6.783 7.139,10.128 1.015,12.661 -3.72,23.868 -15.064,30.715 z"
   id="path114" />
		<path
   style="fill:#8e8eaf"
   d="m 118.293,383.087 c -1.079,2.276 -2.13,4.561 -3.135,6.856 -1.508,-1.645 -3.163,-3.154 -4.945,-4.497 0.146,-0.274 0.302,-0.548 0.457,-0.823 1.846,-3.163 4.762,-2.258 7.623,-1.536 z"
   id="path115" />
		<path
   style="fill:#8e8eaf"
   d="m 133.001,379.513 c -2.23,3.83 -4.141,7.843 -6.335,11.692 -1.097,1.91 -2.313,3.821 -4.324,4.826 -0.027,-0.036 -0.046,-0.073 -0.064,-0.11 -1.042,-1.847 -2.386,-3.739 -4.26,-4.616 2.934,-5.366 5.229,-11.381 7.221,-17.03 1.088,2.093 3.373,3.373 5.677,4.232 0.603,0.228 1.234,0.457 1.874,0.686 0.046,0.082 0.101,0.174 0.174,0.265 0.01,0.018 0.019,0.036 0.037,0.055 z"
   id="path116" />
		<path
   style="fill:#443b3d"
   d="m 306.876,403.691 c 0.393,0.594 0.841,1.143 1.344,1.655 -6.737,1.728 -13.401,3.757 -19.983,6.061 -0.759,-1.627 -1.335,-3.373 -1.691,-5.229 4.004,0.256 8.145,-0.713 12.085,-1.289 2.715,-0.402 5.512,-0.704 8.245,-1.198 z"
   id="path117" />
		<path
   style="fill:#443b3d"
   d="m 309.628,403.554 c 2.386,-0.027 4.982,-0.073 7.569,-0.311 -1.883,0.402 -3.766,0.823 -5.649,1.28 -0.631,-0.32 -1.271,-0.649 -1.92,-0.969 z"
   id="path118" />
		<path
   style="fill:#84777b"
   d="m 339.446,385.537 c 1.719,4.982 0.731,10.266 -2.23,14.498 -4.004,0.43 -7.999,0.987 -11.966,1.664 3.812,-1.298 6.929,-3.538 8.282,-7.386 2.121,-6.006 0.128,-13.319 -4.571,-16.792 0.923,-0.192 1.837,-0.439 2.752,-0.713 3.446,2.046 6.28,4.524 7.733,8.729 z"
   id="path119" />
		<path
   style="fill:#443b3d"
   d="m 361.33,399.13 c -4.863,-0.174 -9.735,-0.119 -14.58,0.137 -2.084,0.11 -4.168,0.256 -6.243,0.448 4.05,-7.77 2.304,-19.279 -4.936,-24.224 1.645,-0.612 3.282,-1.234 4.909,-1.764 3.775,-1.234 7.825,-2.057 11.527,-3.519 8.83,6.964 10.676,18.08 9.323,28.922 z"
   id="path120" />
		<path
   style="fill:#84777b"
   d="m 323.833,385.18 c -3.282,0.96 -6.554,1.911 -9.827,2.87 0.439,-2.843 2.934,-5.073 6.152,-4.982 0.612,0.018 1.161,0.101 1.664,0.247 0.731,0.549 1.426,1.18 2.011,1.865 z"
   id="path121" />
		<path
   style="fill:#8e8eaf"
   d="m 329.94,383.398 c -1.115,0.329 -2.231,0.649 -3.346,0.978 -1.298,-1.993 -3.391,-3.492 -5.777,-3.748 -5.201,-0.558 -9.242,3.437 -9.406,8.172 -13.739,4.013 -27.469,8.017 -41.199,12.021 -7.021,0 -14.041,0.009 -21.052,0.018 -7.761,0 -15.641,-0.238 -23.456,-0.009 33.091,-5.951 65.935,-13.648 98.195,-23.072 2.759,0.658 4.816,2.897 6.041,5.64 z"
   id="path122" />
		<path
   style="fill:#ffffff"
   d="m 149.841,301.577 c 0.182,0.324 0.034,0.735 -0.172,1.044 -0.579,0.873 -1.549,1.39 -2.471,1.887 -3.685,1.988 -7.239,4.218 -10.631,6.672 2.665,-3.44 6.082,-6.227 9.655,-8.711 0.758,-0.527 1.551,-1.053 2.457,-1.23 0.424,-0.082 0.951,-0.039 1.162,0.338 z"
   id="path123" />
		<path
   style="fill:#ffc024"
   d="m 154.538,251.655 c 0.064,0.594 0.165,1.198 0.292,1.792 -3.007,-2.395 -3.693,-5.668 -3.483,-9.187 1.005,0.338 2.029,0.631 3.081,0.85 -0.137,2.239 -0.1,4.442 0.11,6.545 z"
   id="path124" />
		<path
   style="fill:#ffc024"
   d="m 175.965,226.379 c 1.133,-0.082 2.276,-0.137 3.419,-0.174 -0.018,1.929 0.036,3.848 0.256,5.741 -1.289,0.667 -2.477,1.536 -3.501,2.623 0.759,-2.705 0.731,-5.621 -0.174,-8.19 z"
   id="path125" />
		<path
   style="fill:#fc8f1a"
   d="m 192.995,247.477 c -1.499,2.276 -2.642,4.79 -4.132,7.084 -1.581,2.432 -3.848,4.47 -5.201,7.02 -0.027,0.055 -0.037,0.11 -0.055,0.165 -1.645,-0.585 -3.556,-0.686 -5.384,-0.457 -2.706,0.329 -5.439,0.896 -8.172,1.618 1.216,-2.889 -3.145,-5.064 -5.924,-5.549 -1.892,-0.338 -4.635,-0.969 -5.978,-2.541 -0.832,-0.96 -0.914,-3.291 -1.015,-4.571 -0.119,-1.545 -0.046,-3.145 0.055,-4.708 5.942,0.558 12.222,-1.216 16.134,-5.667 0.11,-0.119 0.21,-0.247 0.32,-0.375 -0.027,0.53 -0.018,1.079 0.037,1.627 -0.704,0.485 -1.289,1.234 -1.755,1.874 -0.759,1.042 -1.015,2.112 -1.179,3.373 -0.027,0.165 0.027,0.293 0.11,0.393 -0.174,3.766 4.79,5.439 4.79,9.205 0,0.238 0.082,0.421 0.201,0.576 -0.512,0.978 -0.494,2.02 0.256,3.044 0.868,1.179 2.441,1.581 3.784,1.042 1.307,-0.512 2.185,-1.764 2.084,-3.19 -0.073,-0.96 -0.795,-2.331 -1.828,-2.578 -0.229,-1.316 -0.64,-2.578 -1.079,-3.839 0.548,0.375 1.124,0.676 1.737,0.905 0.128,0.046 0.256,0.046 0.384,0.037 2.203,0.585 4.351,0.082 6.335,-1.216 1.335,-0.868 3.291,-2.541 3.428,-4.305 0.612,0.421 1.316,0.768 2.047,1.033 z"
   id="path126" />
		<path
   style="fill:#443b3d"
   d="m 307.672,304.591 c 0.987,0.201 1.984,0.439 2.934,0.768 -1.198,0.1 -2.276,0.283 -3.163,0.631 -3.812,1.499 -7.368,4.781 -8.328,8.84 -3.327,0.219 -6.637,0.622 -9.9,1.243 -10,-1.198 -20.165,-1.417 -30.221,-1.984 -6.993,-0.393 -14.077,-1.143 -21.144,-1.527 2.779,-0.329 5.558,-0.649 8.346,-0.932 10.366,-1.079 20.769,-1.298 31.135,-2.212 6.618,-0.585 13.538,-2.093 18.876,-6.198 3.859,0.119 7.698,0.576 11.465,1.371 z"
   id="path127" />
		<path
   style="fill:#443b3d"
   d="m 317.535,315.597 c -0.466,-0.073 -0.932,-0.128 -1.39,-0.192 -1.709,-0.228 -3.437,-0.384 -5.183,-0.512 1.911,-1.426 4.004,-2.112 6.179,-2.431 0.192,0.768 0.32,1.563 0.366,2.349 0.019,0.256 0.028,0.521 0.028,0.786 z"
   id="path128" />
		<path
   style="fill:#db193a"
   d="m 429.122,241.563 c -1.417,-2.514 -4.845,-4.306 -7.267,-5.402 -2.642,-1.197 -5.512,-1.901 -8.392,-1.627 -11.829,-0.686 -23.95,0.009 -35.779,0.018 -12.587,0.018 -25.358,0.804 -37.927,0.283 0.037,-1.326 0.064,-2.66 0.046,-3.976 1.198,0.658 2.843,0.877 4.26,0.914 25.175,0.676 50.386,0.466 75.552,-0.631 2.404,-0.1 4.954,-0.256 6.947,-1.618 1.591,-1.088 2.532,-2.697 3.071,-4.525 0.722,1.874 0.951,4.095 1.079,6.253 0.192,3.153 1.243,8.327 -1.59,10.311 z"
   id="path129" />
		<path
   style="fill:#db193a"
   d="m 297.379,231.425 0.329,0.073 c -0.859,0.174 -1.728,0.347 -2.587,0.521 0.758,-0.201 1.508,-0.393 2.258,-0.594 z"
   id="path130" />
		<path
   style="fill:#db193a"
   d="m 426.617,253.227 c -2.048,-1.901 -4.104,-3.785 -6.189,-5.64 -2.294,-2.048 -4.662,-4.077 -7.468,-5.329 -3.391,-1.517 -7.203,-1.773 -10.915,-1.975 -20.796,-1.143 -41.656,-1.198 -62.471,-0.165 0.027,-1.152 0.082,-2.322 0.128,-3.501 12.597,-0.53 25.403,0.265 38.027,0.283 12.45,0.009 25.239,0.795 37.662,-0.101 2.048,0.649 4.077,1.326 5.997,2.34 2.029,1.06 3.675,2.834 5.613,3.976 -0.649,3.274 -0.448,6.757 -0.384,10.112 z"
   id="path131" />
		<path
   style="fill:#ff7443"
   d="m 348.814,225.027 c -0.428,0.578 -0.18,1.59 0.331,2.039 0.511,0.449 1.174,0.492 1.798,0.519 17.219,0.729 34.469,0.446 51.678,-0.848 1.88,-0.141 3.879,-0.348 5.392,-1.774 -0.358,-1.219 -1.641,-1.402 -2.674,-1.384 -18.427,0.332 -36.855,0.663 -55.282,0.995 -0.443,0.007 -0.939,0.043 -1.243,0.453 z"
   id="path132" />
		<path
   style="fill:#6d2309"
   d="m 202.027,135.086 c 7.505,2.121 15.028,4.232 22.57,6.234 -3.894,0.201 -7.688,-0.247 -11.719,-1.572 -0.749,-0.247 -1.499,0.74 -1.033,1.39 0.603,0.841 1.234,1.645 1.892,2.413 -7.605,-1.298 -14.571,-4.406 -20.531,-9.525 -0.539,-0.466 -1.252,0.274 -0.759,0.786 0.055,0.055 0.11,0.11 0.165,0.174 -0.046,0.082 -0.082,0.174 -0.091,0.274 -0.256,3.145 -0.165,6.445 0.164,9.772 -0.923,-0.073 -1.764,-0.311 -2.514,-0.686 -0.878,-2.203 -0.896,-4.708 -0.421,-7.048 0.357,-1.746 0.969,-3.428 1.682,-5.073 3.547,0.951 7.103,1.874 10.595,2.861 z"
   id="path133" />
		<path
   style="fill:#6d2309"
   d="m 257.943,177.611 c 0.576,1.051 1.225,1.883 2.011,2.578 -6.088,1.133 -12.021,-0.402 -17.149,-3.958 -0.1,-0.11 -0.229,-0.201 -0.375,-0.265 -0.036,-0.027 -0.082,-0.055 -0.128,-0.091 1.033,-1.216 1.993,-2.477 2.87,-3.766 4.443,-0.631 8.73,-2.148 12.606,-4.379 1.929,1.856 4.324,3.254 6.847,4.187 -2.523,0.786 -5.22,1.005 -7.834,0.613 2.112,1.179 4.251,2.377 6.143,3.867 -1.326,-0.238 -2.678,-0.402 -4.05,-0.503 -0.904,-0.066 -1.315,1.031 -0.941,1.717 z"
   id="path134" />
	</g>
</g></g>
</svg>
